<?xml version="1.0" encoding="utf-8"?>
<!-- Generator: Adobe Illustrator 15.1.0, SVG Export Plug-In . SVG Version: 6.00 Build 0)  -->
<!DOCTYPE svg PUBLIC "-//W3C//DTD SVG 1.1//EN" "http://www.w3.org/Graphics/SVG/1.1/DTD/svg11.dtd">
<svg version="1.1" xmlns="http://www.w3.org/2000/svg" xmlns:xlink="http://www.w3.org/1999/xlink" x="0px" y="0px"
	 width="458.645px" height="436.532px" viewBox="0 0 458.645 436.532" enable-background="new 0 0 458.645 436.532"
	 xml:space="preserve">
<g id="Layer_2">
</g>
<g id="Layer_1">
	<path fill="#9B000C" d="M135.33,357.487c0,6.865-2.707,13.801-8.107,20.82c-5.414,6.993-12.093,13.361-20.07,19.087
		c-7.971,5.722-16.428,10.373-25.396,13.935c-8.968,3.568-17.015,5.363-24.124,5.363c-11.095,0-20.911-3.066-29.463-9.171
		c-1.127-1.271-2.693-2.751-4.689-4.405c-1.988-1.646-2.98-2.612-2.98-2.852v-1.541c4.834,2.812,9.879,5.355,15.149,7.653
		c5.263,2.296,10.889,3.417,16.864,3.417c9.393,0,16.857-2.342,22.414-7.047c5.545-4.72,9.878-10.494,13.016-17.385
		c3.124-6.877,5.545-14.133,7.26-21.762c1.703-7.652,3.555-14.39,5.543-20.238c0.575-1.787,1.648-3.264,3.207-4.404
		c1.559-1.133,3.124-2.223,4.697-3.247c1.551-0.998,2.911-2.081,4.053-3.247c1.135-1.146,1.701-2.475,1.701-4.013
		c0-6.604-1.209-13.228-3.615-19.854c-2.434-6.618-4.777-12.852-7.048-18.717c-2.851-6.627-6.187-11.84-10.028-15.658
		c-3.85-3.824-8.469-8.521-13.883-14.133l-3.842-4.19c-0.842-1.275-2.064-3.514-3.631-6.679c-1.559-3.178-3.199-6.381-4.908-9.554
		c-1.709-3.188-3.705-7.331-5.967-12.41c0.272,8.139,1.551,15.218,3.834,21.179c2.277,5.994,5.824,12.434,10.672,19.301
		c0.293,0.246,0.43,0.51,0.43,0.759h-2.133c-0.287,0-1.21-0.698-2.781-2.092c-1.566-1.392-2.77-2.616-3.624-3.63
		c-1.421-1.545-2.714-3.384-3.827-5.533c-1.156-2.178-2.018-4.27-2.57-6.328c-0.582-1-1.361-2.969-2.352-5.896
		c-0.999-2.932-1.498-4.531-1.498-4.781c-0.574-0.758-1.141-2.16-1.701-4.211c-0.575-2.02-1.143-4.189-1.709-6.494
		c-0.574-2.272-1.074-4.512-1.498-6.654c-0.424-2.188-0.785-3.636-1.072-4.416c-1.423,2.802-2.338,5.475-2.77,8.019
		c-0.43,2.573-0.648,5.229-0.648,8.035c0,6.627,1.503,12.8,4.49,18.525c2.994,5.711,6.822,11.063,11.52,16.029
		c4.695,4.961,9.967,9.427,15.805,13.361c5.83,3.958,11.449,7.601,16.857,10.9c0.854,1.024,1.346,2.022,1.496,3.044
		c0.15,1.035,0.212,1.914,0.212,2.677h-1.708c-7.117-2.547-11.526-4.45-13.229-5.721c-12.537-6.105-22.482-14.4-29.88-24.835
		c-7.409-10.439-11.101-22.025-11.101-34.757c0-6.361,0.848-12.289,2.549-17.757c1.709-5.483,3.562-11.262,5.558-17.37v-0.39v-0.376
		c-3.704,2.546-6.761,5.66-9.181,9.361c-2.412,3.688-4.334,7.616-5.763,11.826c-1.421,4.191-2.413,8.531-2.986,12.995
		c-0.582,4.45-0.849,8.604-0.849,12.411c0,6.623,0.924,13.363,2.783,20.248c1.832,6.855,5.037,13.232,9.59,19.074
		c3.418,5.109,6.543,9.637,9.399,13.557c2.837,3.958,4.272,9.112,4.272,15.489v1.521c0,0.503-0.156,1.775-0.438,3.808l-1.701,2.691
		c-1.143-8.411-3.568-15.525-7.268-21.384c-3.698-5.875-7.607-11.59-11.729-17.191c-4.122-5.603-7.767-11.461-10.897-17.564
		c-3.123-6.122-4.682-13.625-4.682-22.539c0-12.475,3.049-23.542,9.174-33.229c6.111-9.673,13.152-19.353,21.123-29.025h-0.849
		c-0.286,0-1.066,0.133-2.351,0.386c-1.285,0.236-2.551,0.502-3.842,0.759c-1.278,0.263-3.057,0.632-5.326,1.142h-2.994h-1.709
		c-1.429,0-2.85-0.058-4.279-0.185c-1.414-0.12-2.133-0.455-2.133-0.957v-1.145c0.855-0.503,2.291-1.282,4.28-2.307
		c1.989-1.009,3.267-1.757,3.841-2.28c1.143-0.769,2.482-1.903,4.055-3.441c1.551-1.518,2.352-2.417,2.352-2.663v-1.145H25.621
		c-0.287,0-1.074-0.246-2.352-0.763c-1.278-0.509-2.208-1.032-2.77-1.534c-0.854,0-1.291-0.397-1.291-1.152l-0.424-0.755v-0.397
		h0.424c1.429-0.239,3.213-0.693,5.338-1.326c2.133-0.643,4.279-1.34,6.406-2.092c2.139-0.779,4.046-1.723,5.769-2.868
		c1.71-1.158,2.837-2.607,3.412-4.398H20.5c-1.715,0-3.287-0.506-4.702-1.538c-1.423-0.999-2.563-2.137-3.411-3.429
		c3.691-1.011,7.744-2.156,12.16-3.428c4.417-1.271,8.327-2.803,11.744-4.587c-2.844-1.015-5.83-1.846-8.969-2.488
		c-3.137-0.622-6.125-1.518-8.961-2.669c-2.852-1.145-5.414-2.604-7.684-4.385c-2.277-1.791-3.985-4.208-5.12-7.263h2.55
		c3.131,0,6.268,0.441,9.398,1.33c3.132,0.899,6.398,1.35,9.816,1.35h3.842c0-0.263-0.43-0.766-1.285-1.538
		c-3.124-1.271-6.473-2.536-10.021-3.808c-3.562-1.278-6.829-2.871-9.823-4.788c-2.988-1.907-5.414-4.129-7.254-6.672
		C0.93,106.315,0,103.007,0,98.925c2.27,0,4.553,0.575,6.829,1.72c2.276,1.141,4.635,2.485,7.054,4.009
		c2.414,1.531,4.964,2.864,7.678,4.009c2.707,1.152,5.619,1.716,8.742,1.716h3.85c0.567,0,1.708-0.502,3.418-1.521
		c-1.429-1.527-3.131-2.799-5.12-3.825c-1.989-1.015-3.698-2.17-5.128-3.432c-5.119-4.078-9.324-8.477-12.584-13.18
		c-3.274-4.713-4.922-10.367-4.922-16.994c0-1.015,0.068-2.929,0.219-5.739c0.144-2.803,0.498-4.187,1.066-4.187h1.285
		c0.287,1.009,0.916,2.857,1.914,5.537c0.998,2.663,1.641,4.389,1.92,5.154c0.288,1.008,0.855,2.423,1.717,4.197
		c0.848,1.774,1.921,3.5,3.205,5.147c1.279,1.668,2.688,3.134,4.259,4.406c1.566,1.271,3.199,1.897,4.901,1.897h0.861
		c-3.697-4.067-6.686-8.207-8.961-12.407c-2.283-4.201-3.418-8.839-3.418-13.932c0-2.799,0.424-5.797,1.277-8.982
		c0.855-3.182,2.707-5.54,5.559-7.072c-0.855,5.356-0.438,10.644,1.271,15.859c1.708,5.219,5.264,9.615,10.678,13.169
		c-1.996-5.089-2.988-9.922-2.988-14.509v-5.346c0-11.464,2.707-21.588,8.115-30.361C48.09,15.466,55.781,7.396,65.74,0v0.769v0.383
		l-4.258,7.263c-0.582,0.509-1.279,1.9-2.133,4.197c-0.855,2.283-1.436,3.691-1.717,4.197c-2.276,4.587-3.835,8.924-4.696,12.988
		c-0.854,4.07-1.284,8.658-1.284,13.75c0,8.904,1.558,16.361,4.709,22.339c3.124,5.985,8.381,12.167,15.791,18.521h0.424h0.855
		l0.854-1.521c0.281-0.256,0.861-0.393,1.703-0.393c0,4.084,0.922,7.841,2.781,11.272c1.853,3.435,2.775,7.062,2.775,10.886
		c0,3.059-0.512,6.049-1.496,8.969c-1.006,2.932-1.491,6.053-1.491,9.361v2.68c0,1.275,0.138,2.348,0.417,3.237
		c0.294,0.896,1.429,1.347,3.418,1.347c1.717,0,3.268-0.636,4.689-1.917c1.436-1.271,2.994-2.604,4.696-4.016
		c1.71-1.384,3.706-2.724,5.981-3.996c2.277-1.278,5.127-1.914,8.538-1.914h4.265c-0.566,0.256-1.271,0.831-2.125,1.719
		c-0.861,0.899-1.572,1.586-2.14,2.088v0.396v0.376c0.567,0.253,1.278,0.52,2.14,0.759c0.854,0.256,1.559,0.383,2.125,0.383
		c-2.275,1.275-4.477,3.579-6.609,6.877c-2.125,3.312-3.207,5.985-3.207,8.019c0,2.553,1.286,3.825,3.85,3.825
		c6.542,0,12.312-1.528,17.295-4.587c4.971-3.045,9.871-6.111,14.717-9.164c1.99-1.528,4.197-2.611,6.617-3.25
		c2.42-0.632,4.69-1.265,6.83-1.914c2.133-0.625,4.265-1.518,6.404-2.663s4.061-2.864,5.77-5.161v2.663
		c0.561,0,2.406,0.15,5.545,0.39c3.124,0.263,5.119,0.389,5.975,0.389c17.076-2.041,31.65-7.444,43.756-16.242
		c12.1-8.77,22.265-19.66,30.529-32.648v3.818c0,7.899-2.344,15.282-7.055,22.152c-4.697,6.874-10.453,13.186-17.268,18.901
		c-6.844,5.738-14.246,10.834-22.217,15.278c-7.971,4.457-15.367,8.213-22.196,11.269l2.557,0.769c0.288,0,1.21,0.058,2.789,0.188
		c1.552,0.126,3.056,0.188,4.478,0.188h2.988c9.959,0,18.415-1.015,25.395-3.055c6.973-2.027,15.005-5.339,24.125-9.919h0.861
		c-2.859,4.84-6.912,8.774-12.182,11.83c-5.258,3.049-11.027,5.482-17.281,7.26c-6.256,1.777-12.668,2.987-19.217,3.623
		c-6.549,0.629-12.379,0.964-17.493,0.964c2.837,3.056,6.61,4.84,11.308,5.336c4.688,0.529,9.029,0.779,13.015,0.779h5.134
		c2.563,0,4.971-0.13,7.254-0.394c2.27-0.246,4.977-1.145,8.113-2.666v1.914c0,0.24-0.779,1.146-2.352,2.656
		c-1.572,1.538-2.912,2.571-4.047,3.06c-3.713,2.56-8.182,4.139-13.459,4.782c-5.266,0.639-10.173,0.957-14.732,0.957h-4.696
		c-2.269,0-4.327-0.055-6.179-0.205c-1.86-0.113-4.205-0.431-7.055-0.94v0.749c0,1.532,0.642,2.939,1.928,4.211
		c1.285,1.272,2.836,2.417,4.695,3.425c1.839,1.025,3.631,2.05,5.332,3.059c1.717,1.025,2.994,2.051,3.85,3.056l-1.286,0.776h-3.842
		c-4.839,0-9.249-1.272-13.233-3.832c-3.979-2.526-7.533-3.818-10.664-3.818c0,2.058,0.697,4.262,2.133,6.686
		c1.422,2.423,3.056,4.782,4.907,7.079c1.846,2.273,3.835,4.443,5.968,6.484c2.141,2.041,3.924,3.832,5.34,5.345h-2.557
		c-2.291,0-4.478-0.437-6.611-1.333c-2.14-0.878-4.061-1.972-5.77-3.244c-0.279-0.506-1.072-1.35-2.352-2.475
		c-1.284-1.159-2.699-2.362-4.271-3.633c-1.565-1.265-3.057-2.485-4.484-3.63c-1.422-1.146-2.276-1.969-2.551-2.485h-1.709
		c0,4.057,0.855,7.902,2.564,11.454c1.695,3.561,2.557,7.25,2.557,11.057v1.155c-0.287,0-0.923-0.308-1.914-0.94
		c-1.006-0.632-1.498-1.083-1.498-1.33c-0.854-0.523-2.078-1.405-3.643-2.693c-1.552-1.271-3.186-2.663-4.902-4.204
		c-1.709-1.511-3.273-2.909-4.695-4.204c-1.422-1.265-2.42-2.153-2.994-2.656v1.142c0,3.056,0.656,5.869,1.935,8.412
		c1.278,2.536,1.921,5.199,1.921,8.012v1.152c-0.574-0.24-1.572-0.821-2.994-1.727c-1.429-0.878-2.133-1.579-2.133-2.119
		c-0.581-0.239-1.572-0.927-2.98-2.092c-1.43-1.145-2.926-2.345-4.491-3.62c-1.558-1.274-3.056-2.426-4.478-3.452
		c-1.429-0.995-2.277-1.757-2.563-2.27c0,0.25-0.157,0.878-0.431,1.911c0,1.78,0.068,3.11,0.219,4.002
		c0.137,0.892,0.498,2.355,1.073,4.406c-0.861-0.267-2.146-0.779-3.849-1.542c-1.709-0.759-3.418-1.511-5.127-2.297
		c-1.709-0.759-3.35-1.459-4.901-2.092c-1.565-0.632-2.503-0.967-2.775-0.967h-0.437l-3.844,6.118
		c-1.42-0.762-2.555-1.463-3.41-2.092c-0.861-0.643-1.989-1.213-3.411-1.727c-0.581,0.759-0.861,1.658-0.861,2.667
		c0,0.786,0,1.534,0,2.297c0,10.708,2.775,19.872,8.333,27.498c5.544,7.643,13.309,14.123,23.248,19.484
		c1.71,1.02,3.645,1.662,5.777,1.908c2.133,0.264,3.767,1.266,4.908,3.039h-2.98c-8.832,0-17.09-2.718-24.781-8.18
		c-7.669-5.489-13.37-11.539-17.061-18.156c-1.997-2.796-3.631-5.722-4.916-8.78c-1.277-3.056-2.762-5.985-4.477-8.795v3.836
		c0,5.841,0.854,11.887,2.557,18.118c1.708,6.262,5.119,11.162,10.253,14.707c0.561,0.273,1.839,1.094,3.835,2.484
		c1.989,1.412,4.129,2.93,6.405,4.584c2.276,1.668,4.333,3.195,6.193,4.579c1.831,1.429,3.056,2.229,3.623,2.485
		c0.567,0.514,1.776,1.539,3.63,3.059c1.846,1.535,3.849,3.254,5.982,5.161c2.125,1.907,4.184,3.753,6.191,5.537
		c1.977,1.788,3.412,3.061,4.273,3.808c0.266,0.523,0.629,1.222,1.053,2.12c0.431,0.888,0.923,1.448,1.49,1.701h-1.271
		l-13.651-9.542c0-0.503-0.3-0.811-0.861-0.953c-0.575-0.12-1.148-0.178-1.71-0.178v1.131v1.525
		c0.281,0.269,0.637,0.901,1.074,1.906c0.424,1.025,0.848,2.111,1.278,3.265c0.424,1.145,0.854,2.228,1.278,3.236
		c0.438,1.024,0.643,1.668,0.643,1.907c2.563,8.921,5.045,17.574,7.473,25.982c2.398,8.377,3.896,17.186,4.477,26.356
		c3.123,2.02,5.188,4.252,6.187,6.678C134.83,351.313,135.33,354.187,135.33,357.487z M44.398,165.76
		c-0.854,0-1.271,0.383-1.271,1.145c0,0.755,0.418,1.152,1.271,1.152c0.567,0,0.848-0.397,0.848-1.152
		C45.246,166.143,44.966,165.76,44.398,165.76z M51.652,195.161c-0.273,0.516-0.424,1.025-0.424,1.538
		c0,0.25,0.15,0.639,0.424,1.145c0.861,0,1.284-0.386,1.284-1.145C52.937,195.677,52.514,195.161,51.652,195.161z M53.367,177.586
		c-0.854,0-1.285,0.393-1.285,1.155c0,0.776,0.432,1.152,1.285,1.152c0.855,0,1.279-0.376,1.279-1.152
		C54.646,177.979,54.223,177.586,53.367,177.586z M60.203,368.17c-0.294-0.496,0-0.763,0.849-0.763c0.56,0,0.778,0.188,0.628,0.581
		c-0.136,0.395-0.349,0.564-0.628,0.564C60.47,368.553,60.203,368.441,60.203,368.17z M92.216,323.491
		c0,8.651-1.491,15.983-4.498,21.963c-2.966,5.989-8.161,11.906-15.565,17.764c-1.148,0.748-2.42,1.587-3.842,2.468
		c-1.442,0.907-2.857,1.341-4.258,1.341h-1.717c8.251-4.588,14.574-9.994,18.998-16.227c4.395-6.226,6.609-13.681,6.609-22.349
		c0-5.089-0.512-9.864-1.496-14.321c-0.999-4.439-2.215-8.829-3.623-13.176c3.978,0,6.604,1.466,7.9,4.387
		c1.272,2.931,1.915,6.191,1.915,9.735c0,1.542-0.075,3.025-0.219,4.415C92.277,320.876,92.216,322.219,92.216,323.491z
		 M198.932,401.02c0,7.145-1.84,14.198-5.545,21.209c-3.705,6.983-9.816,11.768-18.354,14.303v-1.51
		c4.265-4.091,8.25-8.654,11.948-13.757c3.706-5.087,5.552-10.686,5.552-16.792c0-5.609-1.709-11.023-5.121-16.253
		c-3.411-5.198-7.109-9.974-11.095-14.304c-0.581-0.787-2.071-2.365-4.483-4.783c-2.434-2.422-4.984-4.959-7.691-7.651
		c-2.692-2.663-5.264-5.206-7.684-7.622c-2.419-2.417-4.047-4.027-4.908-4.775c-1.421-1.271-2.713-2.878-3.848-4.792
		c-1.129-1.897-1.695-3.612-1.695-5.14v-0.384c0-0.257,0.211-1.104,0.643-2.485c0.416-1.391,0.635-2.215,0.635-2.477
		c0-0.76-0.43-1.531-1.277-2.301c-1.156-1.518-2.64-2.994-4.498-4.379c-1.832-1.397-3.691-2.889-5.537-4.398
		c-1.854-1.538-3.493-3.059-4.902-4.595c-1.436-1.517-2.152-3.179-2.152-4.959c3.418,0,6.904,1.534,10.465,4.593
		c3.562,3.058,6.194,5.594,7.902,7.626c0.273,0.274,0.705,1.022,1.279,2.298c0.566,1.271,1.135,2.047,1.709,2.297
		c0.273,0.246,1.277,0.573,2.986,0.945c1.71,0.384,2.838,0.572,3.412,0.572c2.85,0.506,5.414,1.411,7.689,2.682
		c2.277,1.276,4.539,2.801,6.83,4.581c4.545,3.052,8.53,7.188,11.948,12.396c3.411,5.229,6.263,10.831,8.538,16.823
		c2.283,5.989,4.055,11.904,5.339,17.764C198.295,391.604,198.932,396.682,198.932,401.02z"/>
	<text transform="matrix(1 0 0 1 134.5059 262.377)" fill="#5E0000" font-family="'FFFTusj-Bold'" font-size="60">Mystical</text>
	<text transform="matrix(1 0 0 1 210.6123 312.8179)" fill="#5E0000" font-family="'FFFTusj-Bold'" font-size="60">Legends</text>
</g>
</svg>
