<?xml version="1.0" encoding="utf-8"?>
<!-- Generator: Adobe Illustrator 15.1.0, SVG Export Plug-In . SVG Version: 6.00 Build 0)  -->
<!DOCTYPE svg PUBLIC "-//W3C//DTD SVG 1.1//EN" "http://www.w3.org/Graphics/SVG/1.1/DTD/svg11.dtd">
<svg version="1.1" xmlns="http://www.w3.org/2000/svg" xmlns:xlink="http://www.w3.org/1999/xlink" x="0px" y="0px"
	 width="653.241px" height="313.227px" viewBox="0 0 653.241 313.227" enable-background="new 0 0 653.241 313.227"
	 xml:space="preserve">
<g id="Layer_1">
	<path fill="#FFEE00" d="M109.095,4.643c6.338-0.962,12.828-1.46,19.435-1.46c70.963,0,128.489,57.526,128.489,128.489
		c0,70.961-57.526,128.488-128.489,128.488c-68.817,0-124.998-54.101-128.332-122.089l0,0C0.065,140.606,0,143.16,0,145.729
		c0,80.483,65.245,145.728,145.729,145.728c80.484,0,145.729-65.244,145.729-145.728C291.457,65.245,226.213,0,145.729,0
		C133.075,0,120.8,1.612,109.095,4.643z"/>
</g>
<g id="Layer_3">
	<g>
		<path d="M216.622,191.561c-2.869-8.159-10.52-16.511-18.869-19.251c-0.893-1.148-1.467-2.741-1.021-4.081
			c4.846-0.765,6.631,4.271,9.436,7.269c0.383,0.127,0.955,0.509,1.275,0c-0.256-1.403-2.168-2.359-1.531-3.825
			c1.785,0.319,2.807,2.485,4.59,2.678c0.256-0.127,0.32-0.383,0.256-0.639c-2.613-2.55-4.973-5.928-8.287-7.395
			c-10.902-7.075-17.086-18.551-24.861-28.177c-3.953-6.757-11.221-11.474-15.428-18.104l-0.383-1.275
			c0.318-11.093,2.613-21.355,4.334-31.875c0.957-1.849,3.316-1.53,4.592-3.188c1.91-1.721,2.23-4.59,1.656-6.885
			c-0.955-2.104-2.74-3.825-4.846-4.717c-0.189-0.829,0.256-1.466,0.383-2.167c0.064-2.104-1.467-3.697-3.059-4.972
			c-1.658-0.765-3.252-0.638-5.229-0.638c-2.678-0.637-0.572-4.016-2.295-5.227c-0.127,0.637-0.127,1.593-0.891,1.785l-2.041-1.913
			c-1.211,0.064-2.613-1.275-3.57,0.128c-2.551-0.83-4.08,1.466-6.631,1.02c0.256,0.574,0.83,0.765,1.275,1.147
			c0.064,0.51-0.064,0.957-0.51,1.275c-0.955,0.446-1.912-0.255-2.549-0.51c0.062,0.764,1.594,1.147,1.02,2.04
			c-1.02,0.319-1.723-1.147-2.422-0.383c-0.32,1.977,0.891,3.442,2.295,4.462c0.127,0.765-0.193,1.339-0.766,1.785
			c-1.148,1.339-2.805,0.191-4.08,0c-0.51,1.275-0.893,2.741-2.168,3.57c-0.213,0.429-0.129,1.054-0.721,1.273
			c-0.893,1.458-1.877,2.91-1.828,4.591c0.893,2.231,3.951,3.761,3.57,6.375l-4.975,7.14c-5.545,1.657-10.582,4.399-16.318,5.483
			c-1.562,0.431-3.443,0.087-4.951,0.625c-0.436-0.036-0.636,0.043-0.786,0.394c-2.806,3.507-3.379,9.754-1.021,13.643
			c-1.211,7.458-0.956,15.235-0.255,22.821c1.275,6.056,2.868,12.048,3.825,18.231c-6.631,16.447-17.085,31.365-21.293,48.833
			c-0.574,4.908-3.314,10.454-0.638,15.3c1.595,2.166,4.08,3.696,6.758,3.442c10.2-1.913,19.826-5.229,29.834-7.523
			c1.85-0.446,3.762-1.274,5.609-0.893l3.57,6.503c6.375,15.3,8.096,32.639,12.623,48.703c1.146,12.941,5.928,24.354,7.521,37.103
			l0.639,0.765l1.018-0.893c0.766-3.889,2.424-7.395,2.68-11.475c-0.193-4.398,0.445-8.479,2.805-11.856
			c1.02-4.208-3.316-6.821-5.865-9.563c-4.781-20.336-1.211-44.113-10.965-62.346l-0.127-1.402c1.467-0.638,2.996-1.338,4.717-1.402
			c8.479-2.933,17.531-4.526,26.52-6.248c2.359-0.764,3.762,1.595,5.229,3.061c6.055,1.402,11.602,5.609,15.426,11.092h0.51
			c1.914-0.446,0.703-2.104,0.51-3.188c-2.932-4.334-3.633-9.881-8.67-13.133c-0.127-1.019,1.275-0.509,1.275-1.529
			c-0.957-1.529-2.805-1.274-4.334-1.657c-7.078-5.801-11.539-13.388-16.32-20.527c-0.191-0.637-1.211-1.147-0.639-1.912
			c11.859,4.207,24.928,6.502,33.533,17.468c5.609,0.7,10.838,2.357,14.789,7.012c0.637,0.383,1.467,0.574,1.914-0.255
			C221.53,194.941,218.216,193.538,216.622,191.561z M126.991,200.742c-6.566,0.063-12.877,0.956-18.36,3.697
			c-0.637,0.127-0.383-0.766-0.255-1.021c3.506-6.438,8.542-12.239,13.386-18.104h0.639l4.717,15.046L126.991,200.742z
			 M146.116,91.986c1.275,1.212-2.104,3.315,0.766,2.55c0.51-0.445,0.891-0.956,0.764-1.657c1.85-0.319,3.314,1.084,5.355,0.765
			c1.402,0.319,2.678-1.147,3.697-0.255c-1.02,4.017-2.486,7.905-4.08,11.602h-0.383c-2.613-3.379-3.633-8.734-8.541-9.816
			C143.438,93.835,144.522,91.922,146.116,91.986z M155.679,137.248c-0.83-2.869-1.084-6.311-0.766-9.308
			c0.574-0.637,1.467,0,1.275,0.765C155.806,131.447,156.444,134.634,155.679,137.248z M163.966,189.65
			c-3.506,2.293-3.762,7.267-8.16,8.542c-3.443,1.02-7.141,1.721-10.965,1.401c-1.402-6.056-0.893-13.259-1.912-19.634
			c-1.213-6.693-1.213-14.344,0.766-20.654c1.02-6.821-1.402-13.26-7.523-16.958c-2.869-2.613-7.268-5.036-6.885-9.562
			c0.637-2.996,0.574-6.248,2.295-8.797l10.455-10.2c2.996,0,4.846,2.933,6.502,5.1c-1.529,13.833-4.398,31.173,6.885,41.437
			c3.762,1.084,2.232,5.1,3.316,7.649c1.91,7.013,3.951,14.025,7.775,20.272C166.833,189.841,164.667,188.821,163.966,189.65z
			 M193.163,170.015c-10.072-2.231-19.189-6.694-27.795-12.496c-1.467-2.613-2.359-5.481-2.678-8.542
			c-0.318-4.781-1.529-9.435-0.893-14.279c2.869,0.701,3.123,3.825,5.1,5.61c7.777,8.861,17.213,16.063,24.48,25.244
			C191.95,167.018,193.608,168.421,193.163,170.015z"/>
		<path d="M216.112,199.084c0.955,0.956,1.02,2.357,1.656,3.441c0.766,1.275,0,3.188,1.148,4.335
			c0.764,0.255,1.146-0.445,1.658-0.893c0.637-1.976-0.703-3.442-1.275-5.1C218.661,200.104,217.132,196.98,216.112,199.084z"/>
		<path d="M195.331,215.022c-0.83,1.783,1.4,3.506,1.529,5.482c0.893,1.147-0.383,3.824,1.656,3.951
			c1.02-0.382,1.402-1.401,1.402-2.422C199.347,219.292,198.39,216.042,195.331,215.022z"/>
		<path d="M192.907,230.193l1.402-1.912c0.256-1.084,1.148-2.358,0.256-3.442C194.946,227.005,193.544,228.409,192.907,230.193z"/>
	</g>
</g>
<g id="Layer_2">
	<g>
		<path d="M355.428,153.825c-0.966,0-1.919-0.483-2.857-1.447c-0.938-0.966-1.327-1.958-1.165-2.977
			c0.536-4.024,0.805-5.982,0.805-5.875c0-4.988-1.743-7.482-5.229-7.482c-6.384,0-16.202,5.472-29.451,16.414
			c-13.411,11.159-20.115,19.769-20.115,25.83c0,2.575,2.627,4.667,7.887,6.276c2.52,0.804,9.224,2.147,20.114,4.024
			c9.547,1.662,16.495,3.539,20.84,5.631c6.866,3.273,10.301,7.914,10.301,13.922c0,7.08-4.051,13.732-12.149,19.955
			c-7.618,5.846-14.969,8.771-22.047,8.771h-3.624c-4.559,0-8.876-1.396-12.953-4.186c-4.669-3.164-7-7.08-7-11.747
			c0-1.234,0.375-2.896,1.124-4.988c0.911-2.468,1.854-3.702,2.819-3.702c1.929,0,2.895,0.94,2.895,2.817
			c0,0.751-0.175,1.717-0.522,2.896c-0.351,1.181-0.522,1.879-0.522,2.092c0,2.79,1.42,5.069,4.263,6.839
			c2.523,1.556,5.553,2.333,9.093,2.333c7.189,0,14.027-2.12,20.521-6.356c7.134-4.667,10.702-10.191,10.702-16.576
			c0-3.433-2.898-6.114-8.69-8.046c-2.953-0.966-9.444-2.254-19.472-3.863c-4.669-0.696-11.562-2.145-20.683-4.345
			c-7.078-2.414-10.619-5.846-10.619-10.3c0-11.049,7.457-22.449,22.37-34.196c13.999-10.998,26.068-16.497,36.207-16.497
			c8.316,0,12.473,5.177,12.473,15.53c0,1.609-0.481,3.46-1.447,5.552C358.216,152.592,356.93,153.825,355.428,153.825z"/>
	</g>
	<g>
		<path d="M485.164,255.002c-4.507,0-7.862-2.12-10.059-6.357c-3.81-7.403-6.089-30.04-6.842-67.913
			c-0.374-18.078-2.761-27.117-7.161-27.117c-4.184,0-9.495,7.78-15.931,23.336c-3.541,8.476-6.976,18.614-10.3,30.416
			c-4.294,14.965-6.277,26.043-5.954,33.232c0.106,1.877-0.217,3.727-0.966,5.552c-0.911,2.36-2.252,3.539-4.022,3.539
			c-1.128,0-2.121-0.643-2.978-1.93c-0.643-1.074-0.966-2.066-0.966-2.978c0-3.326,0.241-8.34,0.726-15.047
			c0.481-6.706,0.722-11.747,0.722-15.126c0-10.889-0.374-20.089-1.124-27.601c-1.396-14.054-3.65-21.081-6.762-21.081
			c-3.005,0-7.134,5.927-12.391,17.782c-9.495,21.778-15.209,38.784-17.138,51.014c-0.216,3.379-0.78,8.261-1.691,14.645
			c-0.591,2.682-2.307,4.024-5.149,4.024s-4.263-1.611-4.263-4.828c0,0.268,0.453-3.514,1.364-11.345
			c1.987-17.81,2.98-37.041,2.98-57.694c0-9.657-1.289-14.483-3.863-14.483c-1.826,0-4.425,1.985-7.805,5.954
			c-2.255,2.95-4.507,5.874-6.758,8.77c-2.631,3.273-4.59,4.909-5.876,4.909c-2.788,0-4.184-1.53-4.184-4.588
			c0-2.575,3.729-6.81,11.184-12.713c7.295-5.793,12.204-8.689,14.728-8.689c4.988,0,8.123,4.344,9.412,13.034
			c0.43,2.684,0.644,8.825,0.644,18.427c0,3.111-0.241,9.415-0.723,18.91c11.211-33.044,21.404-49.566,30.576-49.566
			c6.274,0,10.3,6.867,12.07,20.598c0.694,5.15,1.045,14.592,1.045,28.324c1.447-6.544,2.627-11.532,3.541-14.966
			c2.465-9.28,6.089-18.346,10.864-27.197c6.758-12.553,13.328-18.829,19.712-18.829c7.725,0,12.07,8.289,13.036,24.864l1.85,32.427
			c0.911,16.146,1.396,24.381,1.447,24.703c1.503,13.088,4.133,19.633,7.887,19.633c0.911,0,1.997-0.672,3.259-2.012
			c1.259-1.342,2.266-2.012,3.019-2.012c0.481,0,0.966,0.188,1.447,0.563c1.18,0.804,1.554,2.038,1.128,3.7
			c-0.43,1.557-1.905,2.95-4.429,4.184C488.327,254.491,486.557,255.002,485.164,255.002z"/>
	</g>
	<g>
		<path d="M567.623,259.706c0,2.121-0.37,4.08-1.11,5.88c-0.74,1.801-1.77,3.36-3.09,4.68c-1.32,1.32-2.891,2.351-4.71,3.09
			c-1.82,0.74-3.831,1.111-6.03,1.111c-2.16,0-4.15-0.371-5.97-1.111c-1.821-0.739-3.39-1.77-4.71-3.09
			c-1.32-1.319-2.351-2.879-3.09-4.68c-0.74-1.8-1.11-3.759-1.11-5.88c0-2.12,0.37-4.08,1.11-5.88c0.739-1.8,1.77-3.36,3.09-4.68
			c1.32-1.32,2.889-2.349,4.71-3.09c1.819-0.74,3.81-1.11,5.97-1.11c2.199,0,4.21,0.37,6.03,1.11c1.819,0.741,3.39,1.77,4.71,3.09
			c1.32,1.32,2.35,2.88,3.09,4.68C567.253,255.625,567.623,257.586,567.623,259.706z M563.303,259.706c0-1.56-0.25-3.02-0.75-4.38
			c-0.501-1.359-1.21-2.54-2.13-3.54c-0.921-1-2.03-1.79-3.33-2.37c-1.3-0.579-2.771-0.87-4.41-0.87c-1.641,0-3.11,0.291-4.41,0.87
			c-1.3,0.581-2.399,1.371-3.3,2.37c-0.899,1-1.601,2.181-2.1,3.54c-0.501,1.36-0.75,2.82-0.75,4.38s0.249,3.021,0.75,4.38
			c0.499,1.36,1.2,2.541,2.1,3.54c0.9,1.001,2,1.79,3.3,2.37s2.77,0.87,4.41,0.87c1.64,0,3.11-0.29,4.41-0.87s2.409-1.369,3.33-2.37
			c0.92-0.999,1.629-2.18,2.13-3.54C563.053,262.726,563.303,261.266,563.303,259.706z"/>
		<path d="M587.182,273.746h-4.439l-11.4-28.08h4.68l9,23.641h0.12l8.94-23.641h4.5L587.182,273.746z"/>
		<path d="M606.502,260.786c0.12,1.4,0.459,2.721,1.02,3.96c0.561,1.24,1.3,2.311,2.221,3.21c0.919,0.899,1.979,1.61,3.18,2.13
			c1.2,0.521,2.499,0.78,3.9,0.78c2.119,0,3.949-0.489,5.489-1.47s2.71-2.109,3.511-3.391l3.06,2.52
			c-1.68,2.121-3.53,3.641-5.55,4.561c-2.021,0.92-4.19,1.381-6.51,1.381c-2.081,0-4.011-0.371-5.79-1.111
			c-1.78-0.739-3.311-1.77-4.591-3.09c-1.28-1.319-2.29-2.879-3.029-4.68c-0.741-1.8-1.11-3.759-1.11-5.88
			c0-2.12,0.36-4.08,1.08-5.88c0.72-1.8,1.72-3.36,3-4.68c1.279-1.32,2.779-2.349,4.5-3.09c1.72-0.74,3.579-1.11,5.58-1.11
			c2.12,0,4.02,0.38,5.7,1.14c1.68,0.76,3.09,1.77,4.229,3.03c1.141,1.26,2.011,2.74,2.61,4.44c0.6,1.701,0.9,3.51,0.9,5.43v1.8
			H606.502z M625.582,257.545c0-2.679-0.801-4.85-2.4-6.51c-1.6-1.659-3.84-2.49-6.72-2.49c-1.28,0-2.521,0.25-3.72,0.75
			c-1.2,0.501-2.25,1.17-3.15,2.01s-1.62,1.8-2.16,2.88s-0.81,2.2-0.81,3.36H625.582z"/>
		<path d="M637.521,254.426c0-1.24-0.03-2.5-0.09-3.78c-0.061-1.28-0.111-2.94-0.15-4.98h3.9v5.22h0.119
			c0.28-0.759,0.68-1.49,1.2-2.19c0.52-0.7,1.149-1.33,1.891-1.89c0.739-0.56,1.599-1.01,2.58-1.35
			c0.979-0.339,2.089-0.51,3.329-0.51c1.12,0,2.101,0.12,2.94,0.36l-0.78,3.9c-0.52-0.2-1.28-0.3-2.279-0.3
			c-1.521,0-2.82,0.291-3.9,0.87c-1.08,0.581-1.98,1.32-2.7,2.22s-1.25,1.87-1.59,2.91c-0.34,1.041-0.51,2.04-0.51,3v15.84h-3.96
			V254.426z"/>
	</g>
	<g>
		<path d="M512.974,256.035c-5.149,7.123-8.675,12.271-10.58,15.443c-4.267,7.089-6.399,12.711-6.399,16.873
			c0,0.739,0.653,1.921,1.957,3.544l-1.268,1.851c-1.729-0.213-3.191-1.428-4.392-3.649c-0.951-1.763-1.428-3.315-1.428-4.655
			c0-2.784,1.692-7.034,5.078-12.745c2.291-3.844,5.448-8.463,9.468-13.859c3.386-4.583,5.075-6.91,5.075-6.98
			c0-0.528-2.185-4.391-6.558-11.583c-2.82-4.55-5.643-9.099-8.463-13.647c-1.973-3.349-2.96-5.376-2.96-6.083
			c0-2.043,1.003-3.066,3.015-3.066c1.197,0,2.273,0.793,3.225,2.38c0.036,0.036,1.41,2.786,4.126,8.25
			c2.328,4.655,4.002,7.971,5.026,9.945c1.973,3.632,3.896,6.788,5.765,9.466c2.784-3.312,7.438-8.797,13.963-16.448
			c8.497-9.873,13.574-14.809,15.233-14.809c0.599,0,1.216,0.273,1.851,0.818c0.635,0.549,0.951,1.156,0.951,1.825
			c0,0.775-0.246,1.429-0.739,1.957c-5.22,5.36-10.438,10.702-15.655,16.026c-8.605,8.886-12.905,13.839-12.905,14.863
			c0,0.774,2.659,4.707,7.985,11.793c6.628,8.852,11.971,13.276,16.026,13.276c0.952,0,1.842-0.492,2.671-1.48
			c0.827-0.987,1.542-1.482,2.143-1.482c1.197,0,1.797,0.653,1.797,1.957c0,1.692-1.058,3.087-3.173,4.179
			c-1.692,0.848-3.403,1.27-5.13,1.27c-4.725,0-9.627-3.227-14.704-9.678C520.307,266.4,516.64,261.216,512.974,256.035z"/>
	</g>
	<g>
		<path d="M292.908,312.849h-1.512v-14.868h4.578c1.512,0,2.705,0.329,3.58,0.987s1.312,1.652,1.312,2.982
			c0,1.035-0.325,1.907-0.976,2.613c-0.651,0.708-1.593,1.117-2.825,1.229l4.284,7.057h-1.848l-4.074-6.909h-2.52V312.849z
			 M292.908,304.554h2.688c0.672,0,1.243-0.07,1.712-0.21c0.469-0.14,0.843-0.325,1.123-0.557c0.28-0.231,0.483-0.504,0.609-0.819
			c0.126-0.314,0.189-0.654,0.189-1.018c0-0.351-0.063-0.684-0.189-0.998s-0.329-0.592-0.609-0.83
			c-0.28-0.237-0.654-0.423-1.123-0.557c-0.469-0.133-1.04-0.199-1.712-0.199h-2.688V304.554z"/>
		<path d="M324.47,311.462h7.959v1.387h-9.471v-14.868h9.219v1.386h-7.707v5.062h7.203v1.386h-7.203V311.462z"/>
		<path d="M361.556,300.438c-0.658-0.966-1.617-1.448-2.877-1.448c-0.392,0-0.777,0.052-1.155,0.156
			c-0.378,0.105-0.718,0.267-1.019,0.483c-0.301,0.218-0.542,0.497-0.725,0.841c-0.182,0.343-0.273,0.745-0.273,1.207
			c0,0.672,0.189,1.193,0.567,1.564c0.378,0.371,0.847,0.676,1.407,0.914c0.56,0.238,1.172,0.451,1.837,0.64
			c0.665,0.189,1.277,0.441,1.837,0.757c0.56,0.314,1.029,0.73,1.407,1.249s0.567,1.226,0.567,2.121
			c0,0.672-0.144,1.277-0.431,1.816s-0.665,0.99-1.134,1.354c-0.469,0.364-0.994,0.645-1.575,0.84s-1.166,0.294-1.753,0.294
			c-0.91,0-1.774-0.171-2.593-0.515c-0.819-0.343-1.516-0.906-2.09-1.69l1.386-0.987c0.321,0.547,0.768,0.984,1.34,1.312
			c0.572,0.33,1.249,0.494,2.03,0.494c0.376,0,0.754-0.06,1.13-0.179c0.377-0.118,0.715-0.294,1.015-0.524
			c0.3-0.231,0.548-0.516,0.743-0.852s0.293-0.721,0.293-1.154c0-0.518-0.108-0.948-0.325-1.291
			c-0.217-0.344-0.504-0.631-0.861-0.861c-0.357-0.231-0.763-0.424-1.218-0.578c-0.455-0.154-0.924-0.308-1.407-0.462
			c-0.483-0.153-0.952-0.329-1.407-0.524c-0.455-0.196-0.861-0.445-1.218-0.746c-0.357-0.301-0.644-0.679-0.861-1.134
			c-0.217-0.454-0.325-1.025-0.325-1.712c0-0.713,0.136-1.336,0.409-1.869c0.273-0.531,0.637-0.973,1.092-1.322
			c0.455-0.35,0.969-0.609,1.543-0.777c0.574-0.168,1.162-0.252,1.764-0.252c0.84,0,1.603,0.133,2.289,0.398
			c0.686,0.267,1.323,0.736,1.911,1.408L361.556,300.438z"/>
		<path d="M395.934,307.305c0,0.616-0.073,1.271-0.221,1.964c-0.147,0.692-0.423,1.333-0.829,1.921
			c-0.406,0.589-0.963,1.075-1.67,1.46s-1.614,0.577-2.719,0.577c-1.12,0-2.03-0.192-2.73-0.577c-0.7-0.385-1.253-0.871-1.659-1.46
			c-0.406-0.588-0.683-1.229-0.83-1.921c-0.147-0.693-0.22-1.348-0.22-1.964v-9.324h1.512v9.156c0,0.714,0.07,1.327,0.21,1.837
			c0.14,0.512,0.326,0.942,0.557,1.292c0.231,0.351,0.49,0.627,0.777,0.829c0.287,0.203,0.574,0.361,0.861,0.473
			c0.287,0.112,0.563,0.186,0.829,0.221s0.497,0.053,0.693,0.053c0.182,0,0.409-0.018,0.683-0.053
			c0.273-0.035,0.553-0.108,0.84-0.221c0.287-0.111,0.574-0.27,0.861-0.473c0.287-0.202,0.546-0.479,0.777-0.829
			c0.23-0.35,0.416-0.78,0.557-1.292c0.139-0.51,0.209-1.123,0.209-1.837v-9.156h1.513V307.305z"/>
		<path d="M420.335,312.849h-1.512v-14.868h4.578c1.512,0,2.705,0.329,3.58,0.987s1.312,1.652,1.312,2.982
			c0,1.035-0.325,1.907-0.977,2.613c-0.65,0.708-1.592,1.117-2.824,1.229l4.284,7.057h-1.849l-4.074-6.909h-2.52V312.849z
			 M420.335,304.554h2.688c0.673,0,1.243-0.07,1.713-0.21c0.469-0.14,0.843-0.325,1.123-0.557c0.279-0.231,0.482-0.504,0.609-0.819
			c0.125-0.314,0.188-0.654,0.188-1.018c0-0.351-0.063-0.684-0.188-0.998c-0.127-0.314-0.33-0.592-0.609-0.83
			c-0.28-0.237-0.654-0.423-1.123-0.557c-0.47-0.133-1.04-0.199-1.713-0.199h-2.688V304.554z"/>
		<path d="M451.897,312.849h-1.512v-14.868h4.578c1.512,0,2.705,0.329,3.58,0.987s1.312,1.652,1.312,2.982
			c0,1.035-0.325,1.907-0.977,2.613c-0.65,0.708-1.592,1.117-2.824,1.229l4.284,7.057h-1.849l-4.074-6.909h-2.52V312.849z
			 M451.897,304.554h2.688c0.673,0,1.243-0.07,1.713-0.21c0.469-0.14,0.843-0.325,1.123-0.557c0.279-0.231,0.482-0.504,0.609-0.819
			c0.125-0.314,0.188-0.654,0.188-1.018c0-0.351-0.063-0.684-0.188-0.998c-0.127-0.314-0.33-0.592-0.609-0.83
			c-0.28-0.237-0.654-0.423-1.123-0.557c-0.47-0.133-1.04-0.199-1.713-0.199h-2.688V304.554z"/>
		<path d="M483.46,311.462h7.959v1.387h-9.471v-14.868h9.219v1.386h-7.707v5.062h7.203v1.386h-7.203V311.462z"/>
		<path d="M525.754,310.498c-0.252,0.377-0.563,0.734-0.935,1.07s-0.795,0.627-1.27,0.871c-0.477,0.246-0.991,0.438-1.544,0.578
			c-0.554,0.14-1.138,0.21-1.754,0.21c-1.106,0-2.132-0.196-3.076-0.588c-0.945-0.392-1.765-0.935-2.457-1.628
			c-0.693-0.692-1.235-1.515-1.628-2.467c-0.392-0.952-0.588-1.995-0.588-3.129c0-1.135,0.196-2.178,0.588-3.129
			c0.393-0.952,0.935-1.775,1.628-2.468c0.692-0.693,1.512-1.235,2.457-1.628c0.944-0.392,1.97-0.588,3.076-0.588
			c0.925,0,1.849,0.182,2.772,0.546s1.715,0.966,2.373,1.806l-1.323,0.987c-0.154-0.237-0.364-0.476-0.63-0.714
			s-0.57-0.447-0.914-0.63c-0.343-0.182-0.711-0.329-1.102-0.44c-0.393-0.112-0.785-0.168-1.177-0.168
			c-0.952,0-1.806,0.175-2.562,0.524c-0.756,0.351-1.396,0.819-1.922,1.407s-0.928,1.27-1.207,2.047
			c-0.281,0.777-0.42,1.594-0.42,2.447s0.139,1.669,0.42,2.446c0.279,0.776,0.682,1.46,1.207,2.048s1.166,1.057,1.922,1.406
			s1.609,0.525,2.562,0.525c0.392,0,0.78-0.035,1.165-0.105c0.386-0.07,0.764-0.188,1.135-0.357c0.371-0.168,0.721-0.395,1.05-0.682
			s0.634-0.647,0.913-1.082L525.754,310.498z"/>
		<path d="M552.173,312.849h-1.512v-13.482h-4.979v-1.386h11.467v1.386h-4.977V312.849z"/>
		<path d="M580.081,312.849h-1.513v-14.868h1.513V312.849z"/>
		<path d="M617.713,305.416c0,1.134-0.196,2.177-0.588,3.129s-0.935,1.774-1.628,2.467c-0.692,0.693-1.512,1.236-2.456,1.628
			c-0.945,0.392-1.972,0.588-3.077,0.588s-2.131-0.196-3.076-0.588s-1.765-0.935-2.457-1.628c-0.693-0.692-1.236-1.515-1.628-2.467
			s-0.588-1.995-0.588-3.129c0-1.135,0.196-2.178,0.588-3.129c0.392-0.952,0.935-1.775,1.628-2.468
			c0.692-0.693,1.512-1.235,2.457-1.628c0.945-0.392,1.971-0.588,3.076-0.588s2.132,0.196,3.077,0.588
			c0.944,0.393,1.764,0.935,2.456,1.628c0.693,0.692,1.236,1.516,1.628,2.468C617.517,303.238,617.713,304.281,617.713,305.416z
			 M616.075,305.416c0-0.854-0.141-1.67-0.42-2.447c-0.28-0.777-0.683-1.459-1.208-2.047c-0.524-0.588-1.165-1.057-1.921-1.407
			c-0.756-0.35-1.61-0.524-2.562-0.524s-1.806,0.175-2.562,0.524c-0.756,0.351-1.396,0.819-1.922,1.407s-0.928,1.27-1.207,2.047
			c-0.28,0.777-0.42,1.594-0.42,2.447s0.14,1.669,0.42,2.446c0.279,0.776,0.682,1.46,1.207,2.048s1.166,1.057,1.922,1.406
			s1.609,0.525,2.562,0.525s1.807-0.176,2.562-0.525s1.396-0.818,1.921-1.406c0.525-0.588,0.928-1.271,1.208-2.048
			C615.935,307.084,616.075,306.269,616.075,305.416z"/>
		<path d="M650.599,310.582h0.042v-12.601h1.513v14.868h-1.891l-8.861-12.727h-0.042v12.727h-1.513v-14.868h1.891L650.599,310.582z"
			/>
	</g>
</g>
</svg>
