<?xml version="1.0" encoding="utf-8"?>
<!-- Generator: Adobe Illustrator 15.1.0, SVG Export Plug-In . SVG Version: 6.00 Build 0)  -->
<!DOCTYPE svg PUBLIC "-//W3C//DTD SVG 1.1//EN" "http://www.w3.org/Graphics/SVG/1.1/DTD/svg11.dtd">
<svg version="1.1" id="Layer_1" xmlns="http://www.w3.org/2000/svg" xmlns:xlink="http://www.w3.org/1999/xlink" x="0px" y="0px"
	 width="257.292px" height="164.704px" viewBox="0 0 257.292 164.704" enable-background="new 0 0 257.292 164.704"
	 xml:space="preserve">
<g id="Layer_1_1_">
</g>
<g id="Layer_2">
	<g>
		<path d="M65.738,24.783c-0.966,0-1.919-0.483-2.857-1.447c-0.938-0.966-1.327-1.958-1.165-2.977
			c0.536-4.024,0.805-5.982,0.805-5.875c0-4.988-1.743-7.482-5.229-7.482c-6.384,0-16.202,5.472-29.451,16.414
			C14.429,34.574,7.725,43.184,7.725,49.245c0,2.575,2.627,4.667,7.887,6.276c2.52,0.804,9.224,2.147,20.114,4.024
			c9.547,1.662,16.495,3.539,20.84,5.631c6.866,3.273,10.301,7.914,10.301,13.922c0,7.08-4.051,13.732-12.149,19.955
			c-7.618,5.846-14.969,8.771-22.047,8.771h-3.624c-4.559,0-8.876-1.396-12.953-4.187c-4.669-3.164-7-7.08-7-11.747
			c0-1.234,0.375-2.896,1.124-4.988c0.911-2.468,1.854-3.701,2.819-3.701c1.929,0,2.895,0.939,2.895,2.816
			c0,0.751-0.175,1.717-0.522,2.896c-0.351,1.18-0.522,1.879-0.522,2.092c0,2.789,1.42,5.068,4.263,6.838
			c2.523,1.557,5.553,2.334,9.093,2.334c7.189,0,14.027-2.12,20.521-6.356c7.134-4.667,10.702-10.19,10.702-16.576
			c0-3.433-2.898-6.114-8.69-8.046c-2.953-0.966-9.444-2.254-19.472-3.863c-4.669-0.696-11.562-2.145-20.683-4.345
			C3.541,58.579,0,55.146,0,50.692c0-11.049,7.457-22.449,22.37-34.196C36.369,5.499,48.438,0,58.577,0
			C66.894,0,71.05,5.177,71.05,15.53c0,1.609-0.481,3.46-1.447,5.552C68.526,23.551,67.24,24.783,65.738,24.783z"/>
	</g>
	<g>
		<path d="M195.475,125.961c-4.507,0-7.862-2.121-10.06-6.357c-3.81-7.402-6.088-30.04-6.842-67.913
			c-0.373-18.078-2.761-27.117-7.16-27.117c-4.185,0-9.496,7.78-15.932,23.336c-3.541,8.476-6.977,18.614-10.3,30.416
			c-4.294,14.965-6.277,26.043-5.954,33.232c0.105,1.877-0.217,3.728-0.966,5.552c-0.911,2.36-2.253,3.539-4.022,3.539
			c-1.128,0-2.121-0.643-2.978-1.93c-0.644-1.074-0.966-2.066-0.966-2.979c0-3.326,0.24-8.34,0.726-15.047
			c0.481-6.705,0.722-11.746,0.722-15.126c0-10.889-0.373-20.089-1.123-27.601c-1.396-14.054-3.65-21.081-6.763-21.081
			c-3.005,0-7.134,5.927-12.391,17.782c-9.495,21.778-15.209,38.784-17.138,51.014c-0.216,3.379-0.78,8.261-1.691,14.645
			c-0.591,2.682-2.307,4.024-5.149,4.024c-2.842,0-4.263-1.61-4.263-4.828c0,0.269,0.453-3.515,1.364-11.345
			c1.987-17.811,2.98-37.041,2.98-57.694c0-9.657-1.289-14.483-3.863-14.483c-1.826,0-4.425,1.985-7.805,5.954
			c-2.255,2.95-4.507,5.874-6.758,8.77c-2.631,3.273-4.59,4.909-5.876,4.909c-2.788,0-4.184-1.53-4.184-4.588
			c0-2.575,3.729-6.81,11.184-12.713c7.295-5.793,12.204-8.689,14.728-8.689c4.988,0,8.123,4.344,9.412,13.034
			c0.43,2.684,0.644,8.825,0.644,18.427c0,3.111-0.241,9.415-0.723,18.91c11.211-33.044,21.404-49.566,30.576-49.566
			c6.274,0,10.3,6.867,12.07,20.598c0.694,5.15,1.045,14.592,1.045,28.324c1.446-6.544,2.627-11.532,3.541-14.966
			c2.465-9.28,6.089-18.346,10.864-27.197c6.758-12.553,13.328-18.829,19.712-18.829c7.725,0,12.069,8.289,13.036,24.864
			l1.85,32.427c0.911,16.146,1.396,24.381,1.447,24.704c1.503,13.088,4.133,19.633,7.887,19.633c0.911,0,1.997-0.672,3.26-2.012
			c1.258-1.343,2.266-2.013,3.018-2.013c0.482,0,0.967,0.188,1.447,0.563c1.181,0.804,1.555,2.037,1.129,3.699
			c-0.43,1.557-1.905,2.95-4.43,4.185C198.638,125.45,196.867,125.961,195.475,125.961z"/>
	</g>
	<g>
		<path d="M223.285,126.993c-5.15,7.123-8.676,12.271-10.58,15.443c-4.268,7.089-6.399,12.711-6.399,16.873
			c0,0.738,0.653,1.921,1.957,3.544l-1.269,1.851c-1.729-0.213-3.19-1.428-4.392-3.648c-0.951-1.764-1.429-3.314-1.429-4.655
			c0-2.784,1.693-7.034,5.078-12.745c2.291-3.844,5.449-8.463,9.469-13.859c3.386-4.582,5.074-6.91,5.074-6.979
			c0-0.528-2.185-4.392-6.558-11.583c-2.819-4.55-5.644-9.1-8.463-13.646c-1.974-3.35-2.96-5.377-2.96-6.084
			c0-2.043,1.003-3.065,3.016-3.065c1.196,0,2.272,0.793,3.225,2.38c0.035,0.036,1.41,2.786,4.126,8.25
			c2.327,4.655,4.002,7.971,5.026,9.945c1.973,3.632,3.896,6.787,5.765,9.466c2.784-3.312,7.438-8.797,13.963-16.448
			c8.497-9.873,13.573-14.809,15.233-14.809c0.599,0,1.215,0.273,1.851,0.818c0.635,0.549,0.95,1.155,0.95,1.824
			c0,0.775-0.245,1.43-0.738,1.957c-5.221,5.36-10.438,10.702-15.654,16.026c-8.605,8.886-12.906,13.839-12.906,14.862
			c0,0.774,2.66,4.707,7.985,11.793c6.628,8.853,11.972,13.276,16.026,13.276c0.951,0,1.842-0.491,2.671-1.479
			c0.827-0.987,1.542-1.482,2.144-1.482c1.196,0,1.797,0.653,1.797,1.957c0,1.691-1.059,3.087-3.174,4.18
			c-1.691,0.848-3.402,1.27-5.129,1.27c-4.726,0-9.628-3.227-14.705-9.678C230.617,137.358,226.951,132.174,223.285,126.993z"/>
	</g>
</g>
</svg>
