<?xml version="1.0" encoding="utf-8"?>
<!-- Generator: Adobe Illustrator 15.1.0, SVG Export Plug-In . SVG Version: 6.00 Build 0)  -->
<!DOCTYPE svg PUBLIC "-//W3C//DTD SVG 1.1//EN" "http://www.w3.org/Graphics/SVG/1.1/DTD/svg11.dtd">
<svg version="1.1" id="Layer_1" xmlns="http://www.w3.org/2000/svg" xmlns:xlink="http://www.w3.org/1999/xlink" x="0px" y="0px"
	 width="363.551px" height="184.186px" viewBox="0 0 363.551 184.186" enable-background="new 0 0 363.551 184.186"
	 xml:space="preserve">
<g id="Layer_1_1_">
</g>
<g id="Layer_2">
	<g>
		<path d="M65.738,24.783c-0.966,0-1.919-0.483-2.857-1.447c-0.938-0.966-1.327-1.958-1.165-2.978
			c0.536-4.023,0.805-5.981,0.805-5.875c0-4.987-1.743-7.481-5.229-7.481c-6.384,0-16.202,5.472-29.451,16.414
			C14.429,34.574,7.725,43.184,7.725,49.245c0,2.574,2.627,4.667,7.887,6.275c2.52,0.805,9.224,2.147,20.114,4.024
			c9.547,1.662,16.495,3.539,20.84,5.631c6.866,3.273,10.301,7.914,10.301,13.922c0,7.08-4.051,13.732-12.149,19.955
			c-7.618,5.846-14.969,8.771-22.047,8.771h-3.624c-4.559,0-8.876-1.396-12.953-4.187c-4.669-3.164-7-7.08-7-11.747
			c0-1.233,0.375-2.896,1.124-4.988c0.911-2.468,1.854-3.701,2.819-3.701c1.929,0,2.895,0.939,2.895,2.816
			c0,0.751-0.175,1.717-0.522,2.896c-0.351,1.181-0.522,1.879-0.522,2.092c0,2.79,1.42,5.069,4.263,6.839
			c2.523,1.556,5.553,2.333,9.093,2.333c7.189,0,14.027-2.12,20.521-6.356c7.134-4.667,10.702-10.19,10.702-16.575
			c0-3.434-2.898-6.114-8.69-8.046c-2.953-0.967-9.444-2.255-19.472-3.863c-4.669-0.696-11.562-2.146-20.683-4.345
			C3.541,58.579,0,55.146,0,50.692c0-11.049,7.457-22.448,22.37-34.195C36.369,5.499,48.438,0,58.577,0
			c8.317,0,12.473,5.177,12.473,15.53c0,1.608-0.481,3.46-1.447,5.552C68.526,23.551,67.24,24.783,65.738,24.783z"/>
	</g>
	<g>
		<path d="M195.475,125.961c-4.508,0-7.862-2.12-10.059-6.357c-3.811-7.402-6.089-30.04-6.842-67.913
			c-0.374-18.078-2.761-27.116-7.161-27.116c-4.184,0-9.495,7.779-15.931,23.336c-3.541,8.476-6.976,18.613-10.3,30.416
			c-4.294,14.965-6.277,26.043-5.954,33.231c0.106,1.877-0.217,3.728-0.966,5.552c-0.911,2.36-2.252,3.539-4.022,3.539
			c-1.128,0-2.121-0.643-2.978-1.93c-0.643-1.074-0.966-2.066-0.966-2.978c0-3.326,0.241-8.341,0.726-15.048
			c0.481-6.705,0.722-11.746,0.722-15.126c0-10.889-0.374-20.089-1.124-27.601c-1.396-14.054-3.65-21.081-6.762-21.081
			c-3.005,0-7.134,5.927-12.391,17.782c-9.495,21.777-15.209,38.784-17.138,51.014c-0.216,3.379-0.78,8.261-1.691,14.646
			c-0.591,2.682-2.307,4.023-5.149,4.023c-2.842,0-4.263-1.61-4.263-4.828c0,0.269,0.453-3.514,1.364-11.345
			c1.987-17.81,2.98-37.041,2.98-57.694c0-9.656-1.289-14.482-3.863-14.482c-1.826,0-4.425,1.984-7.805,5.954
			c-2.255,2.95-4.507,5.874-6.758,8.77c-2.631,3.273-4.59,4.909-5.876,4.909c-2.788,0-4.184-1.53-4.184-4.588
			c0-2.575,3.729-6.811,11.184-12.713c7.295-5.793,12.204-8.689,14.728-8.689c4.988,0,8.123,4.345,9.412,13.034
			c0.43,2.684,0.644,8.825,0.644,18.427c0,3.111-0.241,9.415-0.723,18.91c11.211-33.044,21.404-49.565,30.576-49.565
			c6.274,0,10.3,6.866,12.07,20.598c0.694,5.15,1.045,14.592,1.045,28.324c1.447-6.544,2.627-11.532,3.541-14.966
			c2.465-9.28,6.089-18.347,10.864-27.197c6.758-12.553,13.328-18.829,19.712-18.829c7.725,0,12.07,8.289,13.035,24.864
			l1.851,32.427c0.911,16.146,1.396,24.381,1.447,24.703c1.503,13.088,4.133,19.633,7.887,19.633c0.911,0,1.997-0.672,3.259-2.012
			c1.26-1.343,2.266-2.013,3.02-2.013c0.48,0,0.966,0.188,1.447,0.563c1.18,0.804,1.554,2.038,1.127,3.7
			c-0.43,1.557-1.904,2.949-4.428,4.184C198.638,125.449,196.868,125.961,195.475,125.961z"/>
	</g>
	<g>
		<path d="M277.934,130.664c0,2.121-0.37,4.08-1.109,5.88c-0.74,1.801-1.771,3.359-3.091,4.68c-1.319,1.32-2.892,2.352-4.71,3.09
			c-1.82,0.74-3.831,1.111-6.029,1.111c-2.16,0-4.15-0.371-5.971-1.111c-1.82-0.738-3.391-1.77-4.71-3.09
			c-1.319-1.319-2.351-2.879-3.09-4.68c-0.74-1.8-1.11-3.759-1.11-5.88c0-2.12,0.37-4.08,1.11-5.88
			c0.739-1.801,1.771-3.36,3.09-4.681c1.319-1.319,2.89-2.349,4.71-3.09c1.818-0.74,3.811-1.11,5.971-1.11
			c2.198,0,4.209,0.37,6.029,1.11c1.818,0.741,3.391,1.771,4.71,3.09c1.32,1.32,2.351,2.88,3.091,4.681
			C277.563,126.584,277.934,128.544,277.934,130.664z M273.613,130.664c0-1.561-0.25-3.021-0.75-4.38
			c-0.501-1.359-1.21-2.54-2.13-3.54c-0.921-1-2.029-1.79-3.33-2.37c-1.3-0.579-2.771-0.87-4.41-0.87
			c-1.641,0-3.109,0.291-4.41,0.87c-1.299,0.581-2.398,1.371-3.299,2.37c-0.9,1-1.602,2.181-2.101,3.54
			c-0.501,1.359-0.75,2.819-0.75,4.38c0,1.56,0.249,3.021,0.75,4.38c0.499,1.359,1.2,2.541,2.101,3.54
			c0.899,1.001,2,1.79,3.299,2.37c1.301,0.58,2.771,0.87,4.41,0.87c1.641,0,3.11-0.29,4.41-0.87c1.301-0.58,2.409-1.369,3.33-2.37
			c0.92-0.999,1.629-2.181,2.13-3.54C273.363,133.685,273.613,132.224,273.613,130.664z"/>
		<path d="M297.493,144.704h-4.439l-11.4-28.08h4.68l9,23.641h0.121l8.939-23.641h4.5L297.493,144.704z"/>
		<path d="M316.812,131.744c0.12,1.399,0.459,2.721,1.021,3.96c0.561,1.239,1.299,2.311,2.221,3.21
			c0.919,0.898,1.979,1.609,3.18,2.13c1.2,0.521,2.499,0.78,3.9,0.78c2.119,0,3.949-0.489,5.488-1.471
			c1.541-0.98,2.711-2.108,3.512-3.391l3.06,2.52c-1.68,2.121-3.53,3.642-5.55,4.562c-2.021,0.92-4.189,1.381-6.51,1.381
			c-2.082,0-4.012-0.371-5.791-1.111c-1.779-0.738-3.311-1.77-4.59-3.09c-1.28-1.318-2.291-2.879-3.029-4.68
			c-0.741-1.8-1.11-3.759-1.11-5.88c0-2.12,0.36-4.08,1.08-5.88c0.72-1.801,1.72-3.36,3-4.681c1.279-1.319,2.779-2.349,4.5-3.09
			c1.72-0.74,3.579-1.109,5.58-1.109c2.12,0,4.021,0.38,5.7,1.14s3.09,1.77,4.229,3.03c1.141,1.26,2.012,2.739,2.61,4.439
			c0.601,1.701,0.899,3.51,0.899,5.43v1.801H316.812z M335.893,128.504c0-2.679-0.801-4.851-2.4-6.51s-3.84-2.49-6.72-2.49
			c-1.28,0-2.521,0.25-3.72,0.75c-1.2,0.501-2.25,1.17-3.15,2.01s-1.619,1.8-2.16,2.88c-0.539,1.08-0.81,2.2-0.81,3.36H335.893z"/>
		<path d="M347.833,125.384c0-1.24-0.031-2.5-0.09-3.78c-0.062-1.279-0.111-2.939-0.15-4.979h3.9v5.22h0.118
			c0.28-0.759,0.681-1.49,1.2-2.19c0.52-0.699,1.148-1.329,1.891-1.89c0.739-0.56,1.6-1.01,2.58-1.35
			c0.979-0.339,2.09-0.511,3.329-0.511c1.12,0,2.101,0.12,2.94,0.36l-0.78,3.9c-0.521-0.2-1.28-0.3-2.278-0.3
			c-1.521,0-2.82,0.29-3.9,0.869c-1.08,0.581-1.98,1.32-2.7,2.221c-0.72,0.899-1.25,1.87-1.591,2.91c-0.34,1.04-0.51,2.039-0.51,3
			v15.84h-3.959V125.384z"/>
	</g>
	<g>
		<path d="M223.284,126.993c-5.148,7.123-8.675,12.271-10.58,15.442c-4.267,7.089-6.398,12.711-6.398,16.873
			c0,0.739,0.652,1.921,1.957,3.544l-1.268,1.852c-1.729-0.213-3.191-1.429-4.393-3.649c-0.951-1.763-1.428-3.314-1.428-4.655
			c0-2.783,1.691-7.033,5.078-12.745c2.291-3.844,5.447-8.463,9.468-13.858c3.386-4.583,5.075-6.91,5.075-6.98
			c0-0.527-2.186-4.391-6.559-11.583c-2.82-4.55-5.643-9.099-8.463-13.646c-1.973-3.35-2.96-5.376-2.96-6.083
			c0-2.043,1.003-3.066,3.015-3.066c1.197,0,2.273,0.793,3.226,2.38c0.036,0.036,1.409,2.786,4.126,8.25
			c2.328,4.655,4.002,7.972,5.025,9.945c1.974,3.632,3.896,6.788,5.766,9.466c2.783-3.312,7.438-8.797,13.963-16.448
			c8.497-9.872,13.574-14.809,15.232-14.809c0.6,0,1.217,0.273,1.852,0.818c0.635,0.549,0.951,1.155,0.951,1.825
			c0,0.774-0.246,1.429-0.739,1.956c-5.22,5.36-10.438,10.702-15.655,16.026c-8.604,8.886-12.904,13.839-12.904,14.863
			c0,0.773,2.658,4.707,7.984,11.793c6.629,8.852,11.971,13.275,16.026,13.275c0.952,0,1.842-0.491,2.671-1.479
			c0.827-0.987,1.542-1.482,2.143-1.482c1.197,0,1.797,0.653,1.797,1.957c0,1.692-1.058,3.087-3.172,4.18
			c-1.693,0.848-3.404,1.27-5.131,1.27c-4.725,0-9.627-3.227-14.703-9.678C230.618,137.358,226.95,132.175,223.284,126.993z"/>
	</g>
	<g>
		<path d="M3.218,183.808H1.707V168.94h4.578c1.512,0,2.705,0.329,3.58,0.987s1.312,1.652,1.312,2.982
			c0,1.034-0.325,1.906-0.976,2.612c-0.651,0.708-1.593,1.117-2.825,1.229l4.284,7.057H9.812l-4.074-6.909h-2.52V183.808z
			 M3.218,175.513h2.688c0.672,0,1.243-0.07,1.712-0.21c0.469-0.14,0.843-0.325,1.123-0.557c0.28-0.231,0.483-0.504,0.609-0.819
			c0.126-0.314,0.189-0.654,0.189-1.018c0-0.352-0.063-0.685-0.189-0.998c-0.126-0.314-0.329-0.593-0.609-0.83
			c-0.28-0.237-0.654-0.423-1.123-0.558c-0.469-0.133-1.04-0.198-1.712-0.198H3.218V175.513z"/>
		<path d="M34.781,182.421h7.959v1.387h-9.471V168.94h9.219v1.387h-7.707v5.062h7.203v1.386h-7.203V182.421z"/>
		<path d="M71.867,171.396c-0.658-0.966-1.617-1.447-2.877-1.447c-0.392,0-0.777,0.052-1.155,0.155
			c-0.378,0.105-0.718,0.268-1.019,0.483c-0.301,0.218-0.542,0.497-0.725,0.841c-0.182,0.343-0.273,0.745-0.273,1.207
			c0,0.672,0.189,1.193,0.567,1.564c0.378,0.37,0.847,0.676,1.407,0.913c0.56,0.238,1.172,0.451,1.837,0.641
			c0.665,0.188,1.277,0.44,1.837,0.757c0.56,0.314,1.029,0.73,1.407,1.249s0.567,1.226,0.567,2.121c0,0.672-0.144,1.277-0.431,1.815
			c-0.287,0.539-0.665,0.99-1.134,1.354c-0.469,0.364-0.994,0.645-1.575,0.84c-0.581,0.195-1.166,0.294-1.753,0.294
			c-0.91,0-1.774-0.171-2.593-0.515c-0.819-0.343-1.516-0.906-2.09-1.69l1.386-0.986c0.321,0.547,0.768,0.983,1.34,1.312
			c0.572,0.33,1.249,0.494,2.03,0.494c0.376,0,0.754-0.061,1.13-0.179c0.377-0.118,0.715-0.294,1.015-0.524
			c0.3-0.23,0.548-0.516,0.743-0.852c0.195-0.336,0.293-0.722,0.293-1.154c0-0.519-0.108-0.948-0.325-1.291
			c-0.217-0.344-0.504-0.631-0.861-0.861c-0.357-0.23-0.763-0.424-1.218-0.578c-0.455-0.153-0.924-0.308-1.407-0.462
			c-0.483-0.152-0.952-0.329-1.407-0.523c-0.455-0.196-0.861-0.445-1.218-0.746c-0.357-0.301-0.644-0.679-0.861-1.134
			c-0.217-0.454-0.325-1.025-0.325-1.713c0-0.713,0.136-1.336,0.409-1.868c0.273-0.531,0.637-0.974,1.092-1.322
			c0.455-0.351,0.969-0.609,1.543-0.777c0.574-0.168,1.162-0.252,1.764-0.252c0.84,0,1.603,0.133,2.289,0.398
			c0.686,0.267,1.323,0.735,1.911,1.408L71.867,171.396z"/>
		<path d="M106.244,178.264c0,0.616-0.073,1.271-0.221,1.964c-0.147,0.692-0.423,1.333-0.829,1.921
			c-0.406,0.59-0.963,1.075-1.67,1.46c-0.707,0.386-1.614,0.577-2.719,0.577c-1.12,0-2.03-0.191-2.73-0.577
			c-0.7-0.385-1.253-0.87-1.659-1.46c-0.406-0.588-0.683-1.229-0.83-1.921s-0.22-1.348-0.22-1.964v-9.324h1.512v9.156
			c0,0.714,0.07,1.327,0.21,1.837c0.14,0.512,0.326,0.942,0.557,1.292c0.231,0.352,0.49,0.627,0.777,0.829
			c0.287,0.203,0.574,0.361,0.861,0.473c0.287,0.112,0.563,0.187,0.829,0.222c0.266,0.035,0.497,0.053,0.693,0.053
			c0.182,0,0.409-0.018,0.683-0.053c0.273-0.035,0.553-0.108,0.84-0.222c0.287-0.11,0.574-0.27,0.861-0.473
			c0.287-0.202,0.546-0.479,0.777-0.829c0.23-0.35,0.416-0.78,0.557-1.292c0.139-0.51,0.209-1.123,0.209-1.837v-9.156h1.513
			L106.244,178.264L106.244,178.264z"/>
		<path d="M130.646,183.808h-1.512V168.94h4.578c1.512,0,2.705,0.329,3.58,0.987s1.312,1.652,1.312,2.982
			c0,1.034-0.325,1.906-0.977,2.612c-0.65,0.708-1.592,1.117-2.824,1.229l4.284,7.057h-1.849l-4.074-6.909h-2.52v6.909H130.646z
			 M130.646,175.513h2.688c0.673,0,1.243-0.07,1.713-0.21c0.469-0.14,0.843-0.325,1.123-0.557c0.279-0.231,0.482-0.504,0.609-0.819
			c0.125-0.314,0.188-0.654,0.188-1.018c0-0.352-0.063-0.685-0.188-0.998c-0.127-0.314-0.33-0.593-0.609-0.83
			c-0.28-0.237-0.654-0.423-1.123-0.558c-0.47-0.133-1.04-0.198-1.713-0.198h-2.688V175.513z"/>
		<path d="M162.208,183.808h-1.512V168.94h4.578c1.512,0,2.705,0.329,3.58,0.987s1.312,1.652,1.312,2.982
			c0,1.034-0.325,1.906-0.977,2.612c-0.65,0.708-1.592,1.117-2.824,1.229l4.284,7.057H168.8l-4.074-6.909h-2.52v6.909H162.208z
			 M162.208,175.513h2.688c0.673,0,1.243-0.07,1.713-0.21c0.469-0.14,0.843-0.325,1.123-0.557c0.279-0.231,0.482-0.504,0.609-0.819
			c0.125-0.314,0.188-0.654,0.188-1.018c0-0.352-0.063-0.685-0.188-0.998c-0.127-0.314-0.33-0.593-0.609-0.83
			c-0.28-0.237-0.654-0.423-1.123-0.558c-0.47-0.133-1.04-0.198-1.713-0.198h-2.688V175.513z"/>
		<path d="M193.771,182.421h7.959v1.387h-9.472V168.94h9.22v1.387h-7.707v5.062h7.203v1.386h-7.203V182.421z"/>
		<path d="M236.064,181.456c-0.252,0.377-0.563,0.733-0.935,1.069c-0.373,0.336-0.795,0.627-1.271,0.871
			c-0.478,0.246-0.991,0.438-1.544,0.578c-0.555,0.141-1.139,0.21-1.754,0.21c-1.105,0-2.132-0.195-3.076-0.588
			c-0.945-0.392-1.765-0.935-2.457-1.628c-0.693-0.692-1.234-1.515-1.628-2.467c-0.392-0.952-0.588-1.995-0.588-3.129
			c0-1.135,0.196-2.179,0.588-3.129c0.394-0.952,0.935-1.775,1.628-2.469c0.692-0.692,1.512-1.234,2.457-1.628
			c0.944-0.392,1.971-0.588,3.076-0.588c0.925,0,1.85,0.183,2.771,0.546c0.924,0.364,1.715,0.967,2.373,1.807l-1.322,0.986
			c-0.154-0.236-0.364-0.476-0.631-0.714c-0.266-0.237-0.569-0.447-0.914-0.63c-0.342-0.182-0.711-0.329-1.102-0.439
			c-0.393-0.112-0.785-0.168-1.177-0.168c-0.952,0-1.806,0.175-2.562,0.523c-0.756,0.352-1.396,0.819-1.922,1.407
			c-0.527,0.588-0.929,1.27-1.207,2.047c-0.281,0.777-0.42,1.594-0.42,2.447c0,0.853,0.139,1.669,0.42,2.445
			c0.278,0.776,0.682,1.46,1.207,2.049c0.524,0.588,1.166,1.057,1.922,1.405c0.756,0.35,1.608,0.525,2.562,0.525
			c0.392,0,0.78-0.035,1.165-0.105c0.386-0.069,0.764-0.188,1.135-0.356c0.371-0.168,0.721-0.396,1.051-0.683
			c0.328-0.286,0.633-0.646,0.912-1.082L236.064,181.456z"/>
		<path d="M262.483,183.808h-1.512v-13.481h-4.979v-1.387h11.467v1.387h-4.978L262.483,183.808L262.483,183.808z"/>
		<path d="M290.392,183.808h-1.513V168.94h1.513V183.808z"/>
		<path d="M328.023,176.374c0,1.134-0.196,2.177-0.588,3.129s-0.935,1.773-1.628,2.467c-0.691,0.693-1.512,1.236-2.456,1.628
			c-0.944,0.393-1.972,0.588-3.077,0.588s-2.131-0.195-3.076-0.588c-0.945-0.392-1.765-0.935-2.457-1.628
			c-0.693-0.692-1.236-1.515-1.627-2.467c-0.393-0.952-0.589-1.995-0.589-3.129c0-1.135,0.196-2.179,0.589-3.129
			c0.391-0.952,0.934-1.775,1.627-2.469c0.692-0.692,1.512-1.234,2.457-1.628c0.945-0.392,1.971-0.588,3.076-0.588
			s2.133,0.196,3.077,0.588c0.944,0.394,1.765,0.936,2.456,1.628c0.693,0.692,1.236,1.517,1.628,2.469
			C327.827,174.196,328.023,175.24,328.023,176.374z M326.385,176.374c0-0.854-0.141-1.67-0.42-2.447s-0.682-1.459-1.207-2.047
			c-0.524-0.588-1.166-1.057-1.922-1.407c-0.756-0.35-1.609-0.523-2.562-0.523s-1.806,0.175-2.562,0.523
			c-0.756,0.352-1.396,0.819-1.922,1.407c-0.526,0.588-0.929,1.27-1.207,2.047c-0.281,0.777-0.42,1.594-0.42,2.447
			c0,0.853,0.139,1.669,0.42,2.445c0.278,0.776,0.682,1.46,1.207,2.049c0.524,0.588,1.166,1.057,1.922,1.405
			c0.756,0.35,1.608,0.525,2.562,0.525s1.808-0.176,2.562-0.525c0.756-0.349,1.396-0.817,1.922-1.405
			c0.525-0.589,0.928-1.271,1.207-2.049C326.245,178.043,326.385,177.228,326.385,176.374z"/>
		<path d="M360.909,181.54h0.043v-12.602h1.512v14.868h-1.891l-8.861-12.727h-0.041v12.727h-1.514v-14.868h1.891L360.909,181.54z"/>
	</g>
</g>
</svg>
