<?xml version="1.0" encoding="utf-8"?>
<!-- Generator: Adobe Illustrator 15.1.0, SVG Export Plug-In . SVG Version: 6.00 Build 0)  -->
<!DOCTYPE svg PUBLIC "-//W3C//DTD SVG 1.1//EN" "http://www.w3.org/Graphics/SVG/1.1/DTD/svg11.dtd">
<svg version="1.1" xmlns="http://www.w3.org/2000/svg" xmlns:xlink="http://www.w3.org/1999/xlink" x="0px" y="0px"
	 width="291.457px" height="306.309px" viewBox="0 0 291.457 306.309" enable-background="new 0 0 291.457 306.309"
	 xml:space="preserve">
<g id="Layer_1">
	<g>
		<path d="M216.622,191.561c-2.869-8.159-10.52-16.511-18.869-19.251c-0.893-1.148-1.467-2.741-1.021-4.081
			c4.846-0.765,6.631,4.271,9.436,7.269c0.383,0.127,0.955,0.509,1.275,0c-0.256-1.403-2.168-2.359-1.531-3.825
			c1.785,0.319,2.807,2.485,4.59,2.678c0.256-0.127,0.32-0.383,0.256-0.639c-2.613-2.55-4.973-5.928-8.287-7.395
			c-10.902-7.075-17.086-18.551-24.861-28.177c-3.953-6.757-11.221-11.474-15.428-18.104l-0.383-1.275
			c0.318-11.093,2.613-21.355,4.334-31.875c0.957-1.849,3.316-1.53,4.592-3.188c1.91-1.721,2.23-4.59,1.656-6.885
			c-0.955-2.104-2.74-3.825-4.846-4.717c-0.189-0.829,0.256-1.466,0.383-2.167c0.064-2.104-1.467-3.697-3.059-4.972
			c-1.658-0.765-3.252-0.638-5.229-0.638c-2.678-0.637-0.572-4.016-2.295-5.227c-0.127,0.637-0.127,1.593-0.891,1.785l-2.041-1.913
			c-1.211,0.064-2.613-1.275-3.57,0.128c-2.551-0.83-4.08,1.466-6.631,1.02c0.256,0.574,0.83,0.765,1.275,1.147
			c0.064,0.51-0.064,0.957-0.51,1.275c-0.955,0.446-1.912-0.255-2.549-0.51c0.062,0.764,1.594,1.147,1.02,2.04
			c-1.02,0.319-1.723-1.147-2.422-0.383c-0.32,1.977,0.891,3.442,2.295,4.462c0.127,0.765-0.193,1.339-0.766,1.785
			c-1.148,1.339-2.805,0.191-4.08,0c-0.51,1.275-0.893,2.741-2.168,3.57c-0.213,0.429-0.129,1.054-0.721,1.273
			c-0.893,1.458-1.877,2.91-1.828,4.591c0.893,2.231,3.951,3.761,3.57,6.375l-4.975,7.14c-5.545,1.657-10.582,4.399-16.318,5.483
			c-1.562,0.431-3.443,0.087-4.951,0.625c-0.436-0.036-0.636,0.043-0.786,0.394c-2.806,3.507-3.379,9.754-1.021,13.643
			c-1.211,7.458-0.956,15.235-0.255,22.821c1.275,6.056,2.868,12.048,3.825,18.231c-6.631,16.447-17.085,31.365-21.293,48.833
			c-0.574,4.908-3.314,10.454-0.638,15.3c1.595,2.166,4.08,3.696,6.758,3.442c10.2-1.913,19.826-5.229,29.834-7.523
			c1.85-0.446,3.762-1.274,5.609-0.893l3.57,6.503c6.375,15.3,8.096,32.639,12.623,48.703c1.146,12.941,5.928,24.354,7.521,37.103
			l0.639,0.765l1.018-0.893c0.766-3.889,2.424-7.395,2.68-11.475c-0.193-4.398,0.445-8.479,2.805-11.856
			c1.02-4.208-3.316-6.821-5.865-9.563c-4.781-20.336-1.211-44.113-10.965-62.346l-0.127-1.402c1.467-0.638,2.996-1.338,4.717-1.402
			c8.479-2.933,17.531-4.526,26.52-6.248c2.359-0.764,3.762,1.595,5.229,3.061c6.055,1.402,11.602,5.609,15.426,11.092h0.51
			c1.914-0.446,0.703-2.104,0.51-3.188c-2.932-4.334-3.633-9.881-8.67-13.133c-0.127-1.019,1.275-0.509,1.275-1.529
			c-0.957-1.529-2.805-1.274-4.334-1.657c-7.078-5.801-11.539-13.388-16.32-20.527c-0.191-0.637-1.211-1.147-0.639-1.912
			c11.859,4.207,24.928,6.502,33.533,17.468c5.609,0.7,10.838,2.357,14.789,7.012c0.637,0.383,1.467,0.574,1.914-0.255
			C221.53,194.941,218.216,193.538,216.622,191.561z M126.991,200.742c-6.566,0.063-12.877,0.956-18.36,3.697
			c-0.637,0.127-0.383-0.766-0.255-1.021c3.506-6.438,8.542-12.239,13.386-18.104h0.639l4.717,15.046L126.991,200.742z
			 M146.116,91.986c1.275,1.212-2.104,3.315,0.766,2.55c0.51-0.445,0.891-0.956,0.764-1.657c1.85-0.319,3.314,1.084,5.355,0.765
			c1.402,0.319,2.678-1.147,3.697-0.255c-1.02,4.017-2.486,7.905-4.08,11.602h-0.383c-2.613-3.379-3.633-8.734-8.541-9.816
			C143.438,93.835,144.522,91.922,146.116,91.986z M155.679,137.248c-0.83-2.869-1.084-6.311-0.766-9.308
			c0.574-0.637,1.467,0,1.275,0.765C155.806,131.447,156.444,134.634,155.679,137.248z M163.966,189.65
			c-3.506,2.293-3.762,7.267-8.16,8.542c-3.443,1.02-7.141,1.721-10.965,1.401c-1.402-6.056-0.893-13.259-1.912-19.634
			c-1.213-6.693-1.213-14.344,0.766-20.654c1.02-6.821-1.402-13.26-7.523-16.958c-2.869-2.613-7.268-5.036-6.885-9.562
			c0.637-2.996,0.574-6.248,2.295-8.797l10.455-10.2c2.996,0,4.846,2.933,6.502,5.1c-1.529,13.833-4.398,31.173,6.885,41.437
			c3.762,1.084,2.232,5.1,3.316,7.649c1.91,7.013,3.951,14.025,7.775,20.272C166.833,189.841,164.667,188.821,163.966,189.65z
			 M193.163,170.015c-10.072-2.231-19.189-6.694-27.795-12.496c-1.467-2.613-2.359-5.481-2.678-8.542
			c-0.318-4.781-1.529-9.435-0.893-14.279c2.869,0.701,3.123,3.825,5.1,5.61c7.777,8.861,17.213,16.063,24.48,25.244
			C191.95,167.018,193.608,168.421,193.163,170.015z"/>
		<path d="M216.112,199.084c0.955,0.956,1.02,2.357,1.656,3.441c0.766,1.275,0,3.188,1.148,4.335
			c0.764,0.255,1.146-0.445,1.658-0.893c0.637-1.976-0.703-3.442-1.275-5.1C218.661,200.104,217.132,196.98,216.112,199.084z"/>
		<path d="M195.331,215.022c-0.83,1.783,1.4,3.506,1.529,5.482c0.893,1.147-0.383,3.824,1.656,3.951
			c1.02-0.382,1.402-1.401,1.402-2.422C199.347,219.292,198.39,216.042,195.331,215.022z"/>
		<path d="M192.907,230.193l1.402-1.912c0.256-1.084,1.148-2.358,0.256-3.442C194.946,227.005,193.544,228.409,192.907,230.193z"/>
	</g>
</g>
<g id="Layer_2">
	<path d="M109.095,4.643c6.338-0.962,12.828-1.46,19.435-1.46c70.963,0,128.489,57.526,128.489,128.489
		c0,70.961-57.526,128.488-128.489,128.488c-68.817,0-124.998-54.101-128.332-122.089l0,0C0.065,140.606,0,143.16,0,145.729
		c0,80.483,65.245,145.728,145.729,145.728c80.484,0,145.729-65.244,145.729-145.728C291.457,65.245,226.213,0,145.729,0
		C133.075,0,120.8,1.612,109.095,4.643z"/>
</g>
</svg>
