<?xml version="1.0" standalone="no"?>
<!DOCTYPE svg PUBLIC "-//W3C//DTD SVG 1.1//EN" "http://www.w3.org/Graphics/SVG/1.1/DTD/svg11.dtd" >
<svg xmlns="http://www.w3.org/2000/svg">
<metadata></metadata>
<defs>
<font id="oswald_new_lightregular" horiz-adv-x="893" >
<font-face units-per-em="2048" ascent="1638" descent="-410" />
<missing-glyph horiz-adv-x="670" />
<glyph horiz-adv-x="2048" />
<glyph horiz-adv-x="2048" />
<glyph horiz-adv-x="682" />
<glyph unicode="&#xd;" horiz-adv-x="334" />
<glyph unicode=" "  horiz-adv-x="670" />
<glyph unicode="&#x09;" horiz-adv-x="670" />
<glyph unicode="&#xa0;" horiz-adv-x="670" />
<glyph unicode="!" horiz-adv-x="810" d="M305 1719h194l-60 -1331h-54zM326 0v179h185v-179h-185z" />
<glyph unicode="&#x22;" horiz-adv-x="1070" d="M290 1715h168q-12 -71 -24.5 -148.5t-26.5 -158.5h-67zM613 1715h168q-12 -71 -24.5 -148.5t-26.5 -158.5h-67z" />
<glyph unicode="#" horiz-adv-x="1396" d="M206 0l185 660h-155v125h190l67 239h-207v115h239l163 582h145l-163 -582h176l163 582h145l-163 -582h154v-115h-187l-67 -239h204v-125h-239l-185 -660h-144l185 660h-177l-185 -660h-144zM570 785h177l67 239h-177z" />
<glyph unicode="$" horiz-adv-x="1017" d="M167 1423q0 121 82.5 195.5t213.5 78.5v116h67v-119q219 -27 271 -275q1 -3 2 -8.5t1 -8.5l-97 -31q0 2 -0.5 4t-0.5 3q-15 95 -73.5 159.5t-142.5 64.5q-211 0 -211 -164q0 -91 107 -178l215 -171q65 -52 107.5 -94t76 -102t33.5 -121q0 -129 -79.5 -203t-208.5 -81 v-108h-67v110q-122 14 -196.5 106.5t-94.5 226.5l101 30q1 -7 3 -23q19 -110 74.5 -179t153.5 -71q91 -2 147.5 42.5t56.5 139.5q0 117 -178 255l-225 175q-138 109 -138 231z" />
<glyph unicode="%" horiz-adv-x="1216" d="M186 1327v168q0 231 162 231q161 0 161 -231v-168q0 -239 -161 -239q-162 0 -162 239zM270 1329q0 -168 78 -168t78 168v164q0 160 -78 160t-78 -160v-164zM363 479l395 1230h88l-395 -1230h-88zM706 698v167q0 231 161 231t161 -231v-167q0 -240 -161 -240t-161 240z M789 700q0 -169 78 -169q77 0 77 169v163q0 162 -77 162q-78 0 -78 -162v-163z" />
<glyph unicode="&#x26;" horiz-adv-x="1410" d="M192 301q0 138 74.5 291.5t204.5 257.5q-208 345 -208 529q0 168 97 272t259 104q161 0 252.5 -90t91.5 -236q0 -136 -85.5 -295t-254.5 -311l323 -495q150 201 150 431h128q0 -112 -55.5 -259t-151.5 -269q99 -106 205 -106v-137h-19q-154 11 -272 149 q-171 -161 -372 -161q-183 0 -275 90.5t-92 234.5zM332 317q0 -100 57 -160.5t178 -60.5q148 0 295 136l-330 508q-86 -78 -143 -197.5t-57 -225.5zM417 1373q0 -189 150 -439q115 110 183.5 243t68.5 248q0 95 -48.5 151t-147.5 56q-56 0 -98.5 -25.5t-64.5 -66.5 t-32.5 -83t-10.5 -84z" />
<glyph unicode="'" horiz-adv-x="749" d="M290 1715h169q-14 -82 -26.5 -160t-24.5 -147h-67z" />
<glyph unicode="(" horiz-adv-x="911" d="M303 841v5.5v4.5v5.5v4.5v20q0 100 1 157.5t9 166t23 175.5t46.5 153t75.5 135t113.5 84t157.5 35v-132q-55 0 -98 -24t-71.5 -60.5t-49 -99.5t-31 -119.5t-16.5 -143t-7 -149t-1 -156.5v-37q0 -93 0.5 -142t3.5 -136.5t10.5 -137.5t19.5 -119.5t32.5 -109t48.5 -79 t68.5 -57t90.5 -17.5v-132q-69 0 -126.5 21.5t-99 53t-74.5 87t-53.5 104.5t-35 125.5t-22 129t-11 137t-4 127.5t-0.5 120z" />
<glyph unicode=")" horiz-adv-x="921" d="M206 -64v132q50 0 90.5 17.5t68.5 57t48.5 79t32.5 109t19.5 119.5t10.5 137.5t3.5 136.5t0.5 142v12.5v11.5v13q0 94 -1 156.5t-7 149t-16.5 143t-31 119.5t-49 99.5t-71.5 60.5t-98 24v132q88 0 157.5 -35t113.5 -84t75.5 -135t46.5 -153t23 -175.5t9 -166t1 -157.5 v-5.5v-4.5v-5.5v-4.5v-20q0 -77 -0.5 -120t-4 -127.5t-11 -137t-22 -129t-35 -125.5t-53.5 -104.5t-74.5 -87t-99 -53t-126.5 -21.5z" />
<glyph unicode="*" horiz-adv-x="1136" d="M243 1311l36 89l252 -119l-18 302h119l-20 -301l254 120l35 -90l-264 -102l174 -250l-89 -49l-150 252l-149 -252l-88 52l173 247z" />
<glyph unicode="+" horiz-adv-x="1005" d="M250 833v115h192v192h121v-192h192v-115h-192v-192h-121v192h-192z" />
<glyph unicode="," horiz-adv-x="765" d="M299 0v179h185v-23q0 -54 -0.5 -80.5t-1.5 -73t-5 -70t-10 -58t-16 -52.5t-24 -37.5t-34 -28.5t-45 -12l-27 55q32 12 55 38t33 58t14 57.5t4 47.5h-128z" />
<glyph unicode="-" d="M290 833v115h313v-115h-313z" />
<glyph unicode="." horiz-adv-x="773" d="M303 0v179h184v-179h-184z" />
<glyph unicode="/" horiz-adv-x="1027" d="M159 0l552 1721h145l-553 -1721h-144z" />
<glyph unicode="0" horiz-adv-x="1423" d="M305 499v721q0 91 12.5 167t42.5 143.5t76 114t116.5 73.5t161.5 27t161.5 -27t116.5 -73.5t76 -114t42.5 -143.5t12.5 -167v-721q0 -526 -409 -526t-409 526zM457 465q0 -370 257 -370t257 370v789q0 369 -257 369t-257 -369v-789z" />
<glyph unicode="1" horiz-adv-x="908" d="M229 1389v144q60 22 130 70.5t111 117.5h103v-1721h-152v1478q-43 -29 -100 -55t-92 -34z" />
<glyph unicode="2" horiz-adv-x="1322" d="M260 0v128l462 697q40 61 65.5 102.5t59 106t50.5 124.5t17 114q0 162 -54.5 256.5t-173.5 94.5q-68 0 -118.5 -23t-79 -59t-45.5 -92t-22.5 -109.5t-5.5 -123.5h-152v23q0 241 104 373.5t317 132.5q190 0 286 -125.5t96 -346.5q0 -178 -194 -480l-433 -671h606v-122 h-785z" />
<glyph unicode="3" horiz-adv-x="1322" d="M254 1292v25q0 86 21 160t66 135.5t124.5 97t187.5 35.5q81 0 146 -23.5t108 -63.5t72 -95.5t41.5 -116.5t12.5 -130q0 -166 -66 -271t-169 -135q235 -94 235 -448q0 -489 -398 -489q-82 0 -147.5 23.5t-108.5 63t-71.5 94.5t-40.5 114.5t-12 126.5v26h142 q2 -101 18.5 -166t50.5 -100t76.5 -47.5t106.5 -12.5q58 0 98.5 16t72 55.5t46.5 112t15 180.5q0 85 -12.5 150.5t-41 118.5t-79.5 83.5t-123 36.5v129q144 6 200 81.5t56 258.5q0 167 -57 236.5t-174 69.5q-118 0 -181.5 -78t-71.5 -253h-143z" />
<glyph unicode="4" horiz-adv-x="1218" d="M204 509v105l397 1109h233v-1101h171v-113h-171v-509h-152v509h-478zM363 622h319l-1 974z" />
<glyph unicode="5" horiz-adv-x="1294" d="M297 430l152 11q0 -106 13.5 -174.5t43.5 -106t69.5 -51.5t99.5 -14q82 0 132 38t77 132.5t27 255.5q0 153 -27 243t-77 126.5t-132 36.5q-65 0 -132.5 -35t-113.5 -105h-122v934h668l-14 -122h-502v-655q99 105 246 105q94 0 164.5 -40t112 -112.5t61.5 -166t20 -208.5 q0 -121 -21.5 -218t-67 -172.5t-121.5 -117t-178 -41.5q-198 0 -288 116t-90 341z" />
<glyph unicode="6" horiz-adv-x="1367" d="M309 490v766q0 489 388 489q99 0 173 -35t115.5 -96.5t61.5 -134t20 -156.5v-26h-142q-2 101 -18 166t-48.5 100t-73 47.5t-102.5 12.5q-56 0 -94.5 -16t-68.5 -55.5t-44.5 -112t-14.5 -180.5v-325q95 45 246 45q105 0 183 -37.5t124 -106.5t68.5 -157t22.5 -196 q0 -111 -23 -201.5t-70.5 -160.5t-127.5 -108.5t-187 -38.5q-203 0 -295.5 132t-92.5 385zM461 501q0 -99 9.5 -170t27.5 -117t48 -72t65.5 -36.5t85.5 -10.5q134 0 195 86t61 300q0 208 -59 292t-187 84q-70 0 -142.5 -12.5t-103.5 -33.5v-310z" />
<glyph unicode="7" horiz-adv-x="1050" d="M172 1585v136h646v-76q-75 -385 -168 -831.5t-165 -813.5h-158l328 1585h-483z" />
<glyph unicode="8" horiz-adv-x="1384" d="M297 462q0 354 235 448q-103 30 -169 135t-66 271q0 93 22.5 169t68.5 135t124 92t183 33t183 -33t124 -92t68.5 -135t22.5 -169q0 -166 -66 -271t-169 -135q235 -94 235 -448q0 -489 -398 -489t-398 489zM449 459q0 -109 15.5 -181t48 -111.5t76 -55.5t106.5 -16 t106.5 16t76 55.5t48 111.5t15.5 181q0 173 -56 273t-190 115q-134 -15 -190 -115t-56 -273zM449 1317q0 -180 54 -256t192 -84q138 8 192 84t54 256q0 168 -59 237t-187 69t-187 -69t-59 -237z" />
<glyph unicode="9" horiz-adv-x="1357" d="M260 1236q0 111 23 201.5t70.5 160.5t127.5 108.5t187 38.5q203 0 295.5 -132t92.5 -385v-766q0 -489 -388 -489q-99 0 -173 35t-115.5 96.5t-61.5 134t-20 156.5v26h142q2 -101 18 -166t48.5 -100t73 -47.5t102.5 -12.5q56 0 94.5 16t68.5 55.5t44.5 112t14.5 180.5v325 q-95 -45 -246 -45q-105 0 -183 37.5t-124 106.5t-68.5 157t-22.5 196zM412 1237q0 -208 59 -292t187 -84q70 0 142.5 12.5t103.5 33.5v310q0 99 -9.5 170t-27.5 117t-48 72t-65.5 36.5t-85.5 10.5q-134 0 -195 -86t-61 -300z" />
<glyph unicode=":" horiz-adv-x="802" d="M313 275v179h185v-179h-185zM313 813v179h185v-179h-185z" />
<glyph unicode=";" horiz-adv-x="798" d="M313 256v179h184q0 -20 -1 -59q-1 -52 -1.5 -77t-2.5 -68t-6 -64t-10.5 -52t-16 -46.5t-23 -32.5t-32.5 -25t-43 -11l-26 55q59 22 82.5 83.5t23.5 117.5h-128zM313 813v179h184v-179h-184z" />
<glyph unicode="&#x3c;" horiz-adv-x="1103" d="M264 785v215l569 398v-165l-477 -339l477 -342v-167z" />
<glyph unicode="=" horiz-adv-x="1126" d="M315 675v115h505v-115h-505zM315 996v115h505v-115h-505z" />
<glyph unicode="&#x3e;" horiz-adv-x="1103" d="M290 380v167l477 342l-477 339v167l569 -400v-215z" />
<glyph unicode="?" horiz-adv-x="1244" d="M221 1179v146q0 99 35 181t92.5 133.5t129.5 79t149 27.5q75 0 144 -26.5t124.5 -77.5t88.5 -134.5t33 -188.5q0 -180 -98.5 -320t-296.5 -263v-284h-134v341q101 58 176 123t115 119t64 111t30.5 95t6.5 76q0 81 -21 142t-57.5 96t-80.5 52t-94 17q-118 0 -194 -79.5 t-77 -223.5l-1 -142h-134zM463 1v179h184v-179h-184z" />
<glyph unicode="@" horiz-adv-x="1810" d="M260 868q0 191 52 345t142.5 252t208 150t251.5 52q306 0 475.5 -202.5t169.5 -576.5q0 -94 -16 -170t-42.5 -126t-62.5 -83.5t-75 -48t-81 -14.5q-76 0 -141.5 44t-88.5 113q-12 -56 -46 -92t-75.5 -50t-91.5 -14q-55 0 -98 30t-67 73.5t-39.5 100.5t-20.5 102t-5 86 q0 217 66 329t166 112q94 0 181 -76v70h152v-560q0 -153 104 -153q129 0 129 320q0 156 -24 273.5t-65 191.5t-104.5 119.5t-134 63t-161.5 17.5q-35 0 -68.5 -3.5t-86.5 -19.5t-98 -42.5t-93.5 -78t-82 -121t-55.5 -177t-22 -240.5q0 -171 33.5 -300t86 -204.5t128 -122 t148.5 -62.5t160 -16q34 0 68 2t74 8t57.5 8.5t64 11.5t47.5 9l25 -118q-186 -40 -331 -40q-129 0 -234.5 26t-196 87t-152 155t-96 235.5t-34.5 324.5zM760 840q0 -146 28.5 -212.5t86.5 -66.5q52 0 83.5 21t63.5 62v477q-76 53 -132 53q-47 0 -77 -47.5t-41.5 -119 t-11.5 -167.5z" />
<glyph unicode="A" horiz-adv-x="1356" d="M239 0q81 402 170.5 863.5t169.5 857.5h198l340 -1721h-154l-86 448h-397l-88 -448h-153zM498 549h360l-181 1014z" />
<glyph unicode="B" horiz-adv-x="1406" d="M334 0v1721h370q89 0 158 -25t112 -66t70.5 -99t38 -118t10.5 -129q0 -107 -49.5 -209t-136.5 -142q61 -25 106 -73.5t69 -108.5t35 -119.5t11 -118.5q0 -90 -8.5 -159t-34 -138.5t-67.5 -114.5t-114 -73t-170 -28h-400zM486 116h272q52 0 91 21.5t63 56.5t38.5 88 t20 108t5.5 123q0 61 -5 109t-19.5 95t-38 78.5t-63 50.5t-92.5 19h-272v-749zM486 982h244q56 0 96 24.5t62 68t32 94.5t10 112q0 324 -246 324h-198v-623z" />
<glyph unicode="C" horiz-adv-x="1450" d="M307 499v721q0 525 437 525q404 0 404 -525v-70h-145v104q0 83 -12.5 147t-41.5 115.5t-80.5 79t-124.5 27.5q-81 0 -138.5 -27.5t-88.5 -79t-44.5 -115.5t-13.5 -147v-789q0 -83 13.5 -147t44.5 -116t88.5 -79.5t138.5 -27.5q73 0 124.5 27.5t80.5 79.5t41.5 116 t12.5 147v118h145v-84q0 -91 -11 -166t-39.5 -143.5t-73.5 -115t-116 -74t-164 -27.5q-100 0 -176.5 27.5t-125.5 74t-79.5 115t-43 143.5t-12.5 166z" />
<glyph unicode="D" horiz-adv-x="1467" d="M334 0v1721h387q98 0 174 -26.5t125.5 -72t81 -111.5t45 -140t13.5 -163v-700q0 -508 -439 -508h-387zM486 122h235q287 0 287 352v768q0 357 -287 357h-235v-1477z" />
<glyph unicode="E" horiz-adv-x="1183" d="M334 0v1721h600v-122h-448v-652h320v-115h-320v-710h448v-122h-600z" />
<glyph unicode="F" horiz-adv-x="1088" d="M334 0v1721h600v-122h-448v-652h320v-115h-320v-832h-152z" />
<glyph unicode="G" horiz-adv-x="1493" d="M307 481v730q0 534 456 534q100 0 175 -31t120 -82t72.5 -127.5t37.5 -155.5t10 -178v-12h-152v13q0 57 -1.5 96t-7 90.5t-16 86t-30.5 71t-47.5 58t-68.5 35.5t-94 14q-84 0 -144.5 -28.5t-94 -79.5t-48.5 -110t-15 -130v-860q0 -320 297 -320q79 0 135 28t84 76.5 t39.5 100.5t11.5 115v291h-211v115h363v-821h-67l-45 168q-34 -89 -120.5 -142t-191.5 -53q-447 0 -447 508z" />
<glyph unicode="H" horiz-adv-x="1502" d="M334 0v1721h152v-779h530v779h152v-1721h-152v836h-530v-836h-152z" />
<glyph unicode="I" horiz-adv-x="820" d="M333 0v1721h152v-1721h-152z" />
<glyph unicode="J" horiz-adv-x="935" d="M200 0v115q51 0 79 0.5t59.5 5.5t46 11.5t31 23.5t22 35.5t11 53t6.5 71t1 94.5v1311h152v-1311q0 -78 -3.5 -129t-15 -102t-33.5 -80.5t-58.5 -54t-90.5 -34.5t-128 -10h-79z" />
<glyph unicode="K" horiz-adv-x="1386" d="M334 0v1721h152v-905l459 905h157l-356 -710l437 -1011h-161l-368 909l-168 -302v-607h-152z" />
<glyph unicode="L" horiz-adv-x="1159" d="M334 0v1721h152v-1599h481v-122h-633z" />
<glyph unicode="M" horiz-adv-x="1706" d="M334 0v1721h187l332 -1486q61 292 162 714.5t170 771.5h187v-1721h-135v1377l-318 -1377h-132l-318 1376v-1376h-135z" />
<glyph unicode="N" horiz-adv-x="1459" d="M334 0v1721h117l545 -1363v1363h129v-1721h-114l-546 1334v-1334h-131z" />
<glyph unicode="O" horiz-adv-x="1492" d="M307 499v721q0 91 13.5 167t45.5 143.5t81 114t125 73.5t174 27t174 -27t125 -73.5t81 -114t45.5 -143.5t13.5 -167v-721q0 -526 -439 -526t-439 526zM459 465q0 -370 287 -370t287 370v789q0 369 -287 369t-287 -369v-789z" />
<glyph unicode="P" horiz-adv-x="1396" d="M334 0v1721h421q90 0 160 -24.5t116 -66.5t76 -102t42.5 -126.5t12.5 -143.5q0 -79 -10.5 -146t-39 -133t-73 -111.5t-117.5 -74t-168 -28.5h-268v-765h-152zM486 887l286 -1h3q126 0 180 88q55 90 55 281q0 178 -59 261t-179 83h-286v-712z" />
<glyph unicode="Q" horiz-adv-x="1499" d="M307 499v721q0 91 13.5 167t45.5 143.5t81 114t125 73.5t174 27t174 -27t125 -73.5t81 -114t45.5 -143.5t13.5 -167v-721q0 -360 -205 -474q38 -34 63 -54t66.5 -41.5t82.5 -27.5v-114q-83 12 -156.5 63t-151.5 138q-66 -16 -138 -16q-439 0 -439 526zM459 465 q0 -370 287 -370t287 370v789q0 369 -287 369t-287 -369v-789z" />
<glyph unicode="R" horiz-adv-x="1445" d="M334 0v1721h459q87 0 153 -24t106.5 -63.5t65.5 -98t34.5 -121t9.5 -138.5q0 -329 -240 -417l266 -859h-162l-251 840h-289v-840h-152zM486 962h306q65 0 110 26t67.5 74t31.5 100t9 119q0 55 -5.5 99t-20 86t-38.5 70.5t-63 45.5t-91 17h-306v-637z" />
<glyph unicode="S" horiz-adv-x="1363" d="M269 415l134 39q8 -72 28.5 -133t55.5 -113.5t92.5 -82.5t130.5 -30q117 0 181 65t64 184q0 99 -58.5 191t-172.5 212l-269 283q-88 93 -135 174t-47 170q0 169 111 270t285 101q169 0 272 -95.5t137 -277.5l3 -16l-128 -40l-2 14q-18 128 -91.5 210.5t-190.5 82.5 q-114 0 -181.5 -58t-67.5 -171q0 -68 36.5 -134t104.5 -140l253 -275q9 -10 40 -43.5t42.5 -45.5t39 -43t38.5 -46.5t33 -45.5t32 -49.5t24.5 -49t20.5 -53.5t11 -53.5t5 -58.5q0 -184 -113.5 -284t-293.5 -100q-92 0 -167 35.5t-126.5 97.5t-84 140t-46.5 169z" />
<glyph unicode="T" horiz-adv-x="1131" d="M153 1599v122h825v-122h-338v-1599h-152v1599h-335z" />
<glyph unicode="U" horiz-adv-x="1514" d="M320 423v1298h152v-1333q0 -148 67 -220.5t226 -72.5q150 0 214 73t64 220v1333h151v-1298q0 -450 -429 -450q-103 0 -181.5 24t-128 64.5t-80.5 99t-43 122t-12 140.5z" />
<glyph unicode="V" horiz-adv-x="1347" d="M211 1721h164l305 -1541l292 1541h164l-356 -1721h-199z" />
<glyph unicode="W" horiz-adv-x="1812" d="M221 1721h142l235 -1472l222 1472h193l203 -1472l234 1472h141l-286 -1721h-175l-215 1520l-232 -1520h-174z" />
<glyph unicode="X" horiz-adv-x="1367" d="M239 0l367 866l-367 856h143l302 -724l293 724h156l-367 -872l367 -850h-146l-298 717l-293 -717h-157z" />
<glyph unicode="Y" horiz-adv-x="1264" d="M186 1721h169l282 -1032q45 164 95 348t91 335.5t96 348.5h159l-364 -1187v-534h-152v534z" />
<glyph unicode="Z" horiz-adv-x="1273" d="M256 0v141l605 1458h-541v122h697v-141l-605 -1458h605v-122h-761z" />
<glyph unicode="[" horiz-adv-x="870" d="M338 -64v1843h331v-81h-179v-1681h179v-81h-331z" />
<glyph unicode="\" horiz-adv-x="1015" d="M176 1721h145l552 -1721h-144z" />
<glyph unicode="]" horiz-adv-x="880" d="M213 17h179v1681h-179v81h331v-1843h-331v81z" />
<glyph unicode="^" horiz-adv-x="1115" d="M231 896l227 563h207l226 -563h-175l-155 540l-153 -540h-177z" />
<glyph unicode="_" horiz-adv-x="1289" d="M303 0v115h696v-115h-696z" />
<glyph unicode="`" horiz-adv-x="827" d="M258 1722h162l123 -398h-56z" />
<glyph unicode="a" horiz-adv-x="1214" d="M262 239q0 32 1 51.5t5.5 50.5t13 52t25 51.5t40.5 54t60 54t83 58t110.5 59t140.5 63.5v10q0 101 -8.5 174t-21.5 112t-34 61.5t-39 28t-44 5.5q-153 0 -153 -228v-7h-156q12 157 92.5 246.5t211.5 89.5q73 0 129 -23.5t88.5 -60t52.5 -87.5t27 -99t7 -103v-576 q0 -63 4.5 -132t8.5 -106l5 -38h-140l-19 145q-48 -84 -118.5 -128t-134.5 -44q-93 0 -165 73.5t-72 192.5zM413 267q0 -86 36 -127.5t85 -41.5q57 0 115.5 41t91.5 105v422q-73 -51 -115 -82t-88.5 -72.5t-70 -75.5t-39 -77.5t-15.5 -91.5z" />
<glyph unicode="b" horiz-adv-x="1249" d="M308 0v1721h150v-636q47 69 107.5 104.5t123.5 35.5q43 0 75 -8.5t70 -43t62 -94.5t40.5 -171.5t16.5 -266.5v-95q0 -108 -8.5 -195t-22 -145.5t-34.5 -102t-42 -68t-48 -39t-49 -19t-49 -4.5q-152 0 -242 140v-113h-150zM458 205q45 -54 98 -87.5t98 -33.5q20 0 32.5 2 t30 11t28.5 27t23 51.5t19 81.5t11.5 121t4.5 167v95q0 110 -5 192t-16.5 132.5t-23 82t-30 45.5t-33 18t-36.5 4q-94 0 -201 -119v-790z" />
<glyph unicode="c" horiz-adv-x="1210" d="M296 568v62q0 80 1 122.5t7 116t17.5 114.5t35.5 94t58 80.5t87 47.5t121 20q69 0 121.5 -22.5t85 -58.5t53.5 -91t30 -110t13 -126q0 -2 0.5 -5.5t0.5 -5.5h-150v9q0 165 -35.5 237t-118.5 72q-39 0 -67.5 -11t-48 -39t-31.5 -63.5t-19 -96t-9 -124.5t-2 -160v-62 q0 -281 35 -387.5t142 -106.5q81 0 117.5 74.5t36.5 244.5v10h151v-7q0 -94 -13.5 -165t-46 -132t-94.5 -93.5t-151 -32.5q-60 0 -108 12t-81.5 40t-58 55.5t-39 78.5t-23 87t-12.5 103t-4.5 105.5t-0.5 113.5z" />
<glyph unicode="d" horiz-adv-x="1268" d="M289 546v95q0 155 16.5 266.5t40.5 171.5t62 94.5t70 43t75 8.5q63 0 123.5 -35.5t107.5 -104.5v636h150v-1721h-150v113q-90 -140 -242 -140q-27 0 -49 4.5t-49 19t-48 39t-42 68t-34.5 102t-22 145.5t-8.5 195zM439 545q0 -94 4.5 -167t11.5 -121t19 -81.5t23 -51.5 t28.5 -27t30 -11t32.5 -2q45 0 98 33.5t98 87.5v790q-107 119 -201 119q-22 0 -36.5 -4t-33 -18t-30 -45.5t-23 -82t-16.5 -132.5t-5 -192v-95z" />
<glyph unicode="e" horiz-adv-x="1215" d="M297 552l1 167q1 125 18 216.5t44.5 146.5t70.5 87.5t89 44t108 11.5q161 0 231.5 -114t70.5 -360q0 -75 -2 -123h-480v-183q0 -118 11.5 -193.5t36.5 -113.5t55 -51t76 -13q31 0 57.5 13t50.5 43t37.5 88.5t13.5 140.5v8h140v-6q0 -82 -15.5 -149t-48.5 -122t-92.5 -86 t-140.5 -31q-95 0 -156 26.5t-103 93.5t-58 177q-16 104 -15 263v19zM449 702h332v2v54q1 25 1 49v38q-2 44 -4.5 84.5t-12.5 76t-25 62t-42 41.5t-63 15q-46 0 -78 -10t-52.5 -39.5t-32 -55.5t-16.5 -85.5t-6 -100.5t-1 -128v-3z" />
<glyph unicode="f" horiz-adv-x="953" d="M208 1114v84h167v129v18v51t4 55t11.5 59.5t23.5 53t38.5 47t58.5 29.5t81 12q69 0 122 -13v-109q-24 6 -74 6q-33 0 -56 -10t-34.5 -22t-17.5 -36t-6.5 -39t-0.5 -43v-8v-180h192v-84h-192v-1114h-150v1114h-167z" />
<glyph unicode="g" horiz-adv-x="1305" d="M217 -240q0 52 21 100.5t57 86.5t75 67t83 51q-14 3 -50 13.5t-79 31.5t-43 40q0 13 3.5 28.5t11 33t15.5 34t20 36t21 34t22 33.5t20 28t18 24t12 17q-71 64 -105.5 165t-34.5 210q0 58 11 116t37.5 115.5t65 101.5t98 71t132.5 27q96 0 159.5 -46.5t123.5 -139.5 q17 29 26 44t29 43.5t36.5 44.5t41 31t49.5 20l16 3l-20 -148q-75 -14 -147 -95q38 -106 38 -181q0 -72 -12 -136t-38.5 -120.5t-66.5 -97.5t-99 -64.5t-132 -23.5q-86 0 -144 24q-3 -6 -15.5 -28.5t-19.5 -36.5t-16 -35t-13.5 -39t-4.5 -33q0 -24 34.5 -35t175.5 -36 q72 -13 117 -21q283 -53 283 -248q0 -50 -16.5 -90.5t-42.5 -67.5t-63.5 -47t-73.5 -31t-78.5 -17.5t-72.5 -8t-61 -1.5h-8h-5q-391 0 -391 153zM375 -191q0 -17 5.5 -31.5t18 -24t24.5 -16.5t34 -11.5t36 -7t40 -3.5t38.5 -1h38.5h13h37t44 2.5t51 7t47.5 14.5t43.5 24 t27.5 36.5t11.5 50.5q0 72 -36 109.5t-120 53.5l-214 40q-48 -35 -94 -112t-46 -131zM437 776q0 -37 3 -71.5t15.5 -80t32.5 -78t57.5 -55.5t87.5 -23t87 23t57 56t32 78t15.5 80t3.5 71q0 35 -3 70.5t-15.5 84t-32 84.5t-57 62t-87.5 26q-42 0 -75.5 -17.5t-54 -47.5 t-34.5 -63.5t-20.5 -73t-9 -68.5t-2.5 -57z" />
<glyph unicode="h" horiz-adv-x="1254" d="M308 0v1721h150v-636q46 71 110.5 105.5t133.5 34.5q93 0 163.5 -74t70.5 -209v-942h-152v934q0 78 -36.5 116t-84.5 38t-103 -26.5t-101 -69.5v-992h-151z" />
<glyph unicode="i" horiz-adv-x="781" d="M320 0v1198h150v-1198h-150zM320 1472v179h150v-179h-150z" />
<glyph unicode="j" horiz-adv-x="796" d="M120 -204q46 -2 56 -2q33 0 57.5 9t38.5 26.5t23 34.5t12 42.5t4 39.5t1 36v1216h150v-1244q0 -274 -261 -274q-40 0 -81 8v108zM312 1473v179h150v-179h-150z" />
<glyph unicode="k" horiz-adv-x="1246" d="M308 0v1721h150v-1091l374 568h169l-287 -454l285 -744h-157l-235 653l-149 -183v-470h-150z" />
<glyph unicode="l" horiz-adv-x="818" d="M338 0v1721h150v-1721h-150z" />
<glyph unicode="m" horiz-adv-x="1757" d="M308 0v1198h151v-111q117 138 273 138q62 0 122 -38.5t85 -97.5q59 67 132 101.5t132 34.5q93 0 164.5 -64.5t71.5 -159.5v-1001h-150v970q0 74 -36.5 109t-93.5 35q-45 0 -98.5 -26t-98.5 -71v-1017h-150v971q0 74 -37 108.5t-97 34.5q-51 0 -111.5 -32.5t-108.5 -86.5 v-995h-150z" />
<glyph unicode="n" horiz-adv-x="1254" d="M308 0v1198h150v-113q48 70 115 105t139 35q89 0 156.5 -74.5t67.5 -209.5v-941h-152v944q0 89 -35 129.5t-92 40.5q-47 0 -100.5 -32.5t-98.5 -88.5v-993h-150z" />
<glyph unicode="o" horiz-adv-x="1226" d="M296 568v62q0 80 1 122.5t6.5 116t17 114.5t34.5 94t56.5 80.5t84.5 47.5t117 20t117 -20t84.5 -47.5t56.5 -80.5t34.5 -94t17 -114.5t6.5 -116t1 -122.5v-62v-101t-3 -94.5t-8.5 -93.5t-16.5 -82t-26.5 -76t-39.5 -59.5t-55 -49t-73.5 -28t-94.5 -11.5t-94.5 11.5 t-73.5 28t-55 49t-39.5 59.5t-26.5 76t-16.5 82t-8 93.5t-3 94.5t-0.5 101zM446 568q0 -282 33 -388t134 -106t134 106t33 388v62q0 95 -2 160t-8.5 124.5t-18 95.5t-30 63.5t-45 39t-63.5 11.5t-63.5 -11.5t-45.5 -39t-30 -63t-17.5 -96t-8.5 -124.5t-2 -160v-62z" />
<glyph unicode="p" horiz-adv-x="1249" d="M308 -385v1583h150v-113q90 140 242 140q27 0 49 -4.5t49 -19t48 -39t42 -68t34.5 -102t22 -145.5t8.5 -195v-95q0 -155 -16.5 -266.5t-40.5 -171.5t-62 -94.5t-70 -43t-75 -8.5q-63 0 -123.5 35.5t-107.5 104.5v-498h-150zM458 203q107 -119 201 -119q22 0 36.5 4t33 18 t30 45.5t23 82t16.5 132.5t5 192v95q0 94 -4.5 167t-11.5 121t-19 81.5t-23 51.5t-28.5 27t-30 11t-32.5 2q-45 0 -98 -33.5t-98 -87.5v-790z" />
<glyph unicode="q" horiz-adv-x="1269" d="M296 557v95q0 108 8.5 195t22 145.5t34.5 102t42 68t48 39t49 19t49 4.5q152 0 242 -140v113h150v-1583h-150v498q-47 -69 -107.5 -104.5t-123.5 -35.5q-43 0 -75 8.5t-70 43t-62 94.5t-40.5 171.5t-16.5 266.5zM446 558q0 -110 5 -192t16.5 -132.5t23 -82t30 -45.5 t33 -18t36.5 -4q94 0 201 119v790q-45 54 -98 87.5t-98 33.5q-20 0 -32.5 -2t-30 -11t-28.5 -27t-23 -51.5t-19 -81.5t-11.5 -121t-4.5 -167v-95z" />
<glyph unicode="r" horiz-adv-x="945" d="M308 0v1198h150v-169q28 93 101.5 140.5t150.5 47.5h3v-151q-14 4 -26 4q-229 0 -229 -176v-894h-150z" />
<glyph unicode="s" horiz-adv-x="1136" d="M242 300l115 39q14 -44 34.5 -85t49.5 -82t68.5 -66t82.5 -25q79 0 118.5 48t39.5 130q0 115 -205 295l-87 76q-99 87 -149.5 155.5t-50.5 153.5q0 135 82 209.5t219 74.5q65 0 118 -25t89 -69.5t60.5 -96t39.5 -113.5l-133 -41q-9 56 -28.5 106t-60 90.5t-92.5 40.5 q-67 0 -106.5 -45.5t-39.5 -117.5q0 -60 38.5 -114t111.5 -116l95 -82q47 -41 70.5 -62.5t62 -63.5t57.5 -75t34.5 -80.5t15.5 -99.5q0 -133 -84 -209q-85 -78 -221 -77q-132 0 -220.5 92.5t-123.5 234.5z" />
<glyph unicode="t" horiz-adv-x="970" d="M204 1114v84h163v425h150v-425h192v-84h-192v-824q0 -43 1 -67.5t6.5 -53t16 -42.5t30 -23.5t48.5 -9.5q49 0 88 8v-103q-67 -17 -130 -17q-56 0 -96 17.5t-61.5 43.5t-34 69t-15.5 80.5t-3 90.5v831h-163z" />
<glyph unicode="u" horiz-adv-x="1254" d="M318 257v941h152v-944q0 -89 35 -129.5t92 -40.5q47 0 100.5 32.5t98.5 88.5v993h150v-1198h-150v113q-48 -70 -115 -105t-139 -35q-89 0 -156.5 74.5t-67.5 209.5z" />
<glyph unicode="v" horiz-adv-x="1169" d="M233 1198h146l202 -1106l194 1106h143l-241 -1198h-194z" />
<glyph unicode="w" horiz-adv-x="1580" d="M245 1198h131l154 -1042l175 1042h160l188 -1042l140 1042h129l-196 -1198h-155l-183 1028l-176 -1028h-169z" />
<glyph unicode="x" horiz-adv-x="1224" d="M260 0l258 626l-256 572h155l196 -499l196 499h155l-257 -572l258 -626h-146l-206 534l-206 -534h-147z" />
<glyph unicode="y" horiz-adv-x="1185" d="M248 1197h162l198 -1030l194 1031h162l-300 -1281q-27 -118 -119 -167t-254 -49h-3v123q120 8 175.5 40t55.5 90q0 97 -11 142z" />
<glyph unicode="z" horiz-adv-x="1107" d="M256 0v144l472 940h-408v114h549v-143l-461 -940h455v-115h-607z" />
<glyph unicode="{" horiz-adv-x="896" d="M223 768v188q79 0 105 40.5t26 118.5q0 77 0.5 118t3.5 109t9 105.5t18 91t29 83.5t43 65t60 52.5t80 29.5t102 12v-113q-52 0 -88 -12t-59 -47t-36 -65.5t-18.5 -101.5t-6.5 -118t-1 -150q0 -57 -5.5 -100.5t-21.5 -88.5t-50.5 -76.5t-85.5 -46.5q51 -15 85.5 -46.5 t50.5 -76.5t21.5 -88.5t5.5 -100.5q0 -103 1 -150t6.5 -118t18.5 -101.5t36 -65.5t59 -47t88 -12v-113q-56 0 -102 12t-80 29.5t-60 52.5t-43 65t-29 83.5t-18 91t-9 105.5t-3.5 109t-0.5 118q0 78 -26 118.5t-105 40.5z" />
<glyph unicode="|" horiz-adv-x="792" d="M338 -128v1874h118v-1874h-118z" />
<glyph unicode="}" horiz-adv-x="906" d="M213 56q52 0 88 12t59 47t36 65.5t18.5 101.5t6.5 118t1 150q0 57 5.5 100.5t21.5 88.5t50.5 76.5t85.5 46.5q-51 15 -85.5 46.5t-50.5 76.5t-21.5 88.5t-5.5 100.5q0 103 -1 150t-6.5 118t-18.5 101.5t-36 65.5t-59 47t-88 12v113q56 0 102 -12t80 -29.5t60 -52.5 t43 -65t29 -83.5t18 -91t9 -105.5t3.5 -109t0.5 -118q0 -78 26 -118.5t105 -40.5v-188q-79 0 -105 -40.5t-26 -118.5q0 -77 -0.5 -118t-3.5 -109t-9 -105.5t-18 -91t-29 -83.5t-43 -65t-60 -52.5t-80 -29.5t-102 -12v113z" />
<glyph unicode="~" horiz-adv-x="1191" d="M286 959q1 19 3.5 37t13.5 47.5t28.5 50t51.5 36.5t80 16q42 0 139.5 -38t135.5 -38q29 0 45 14.5t21 52.5h116q0 -1 -1 -13.5t-4.5 -28.5t-9.5 -37t-18.5 -39.5t-30 -35t-46 -26.5t-64.5 -10q-57 0 -151.5 39t-131.5 39q-28 0 -42.5 -14t-19.5 -52h-115z" />
<glyph unicode="&#xa1;" horiz-adv-x="3969" d="M130.5 135.5q-9.5 57.5 4.5 118.5q3 15 11.5 47t11.5 45q20 66 32 88q52 98 117 184q18 22 83.5 86.5t86.5 79.5q10 7 34.5 26t43.5 32t37 24q42 27 86 37q61 12 141 -41q2 0 2 2q4 4 4 6q1 1 2 3t3 3.5t4 2.5q48 45 122 32q17 -3 20 -32t-5 -45q-9 -47 -33.5 -97 t-46.5 -81t-62 -83q-124 -160 -192 -305q-50 -109 -33 -157v-1q1 2 2 3q2 1 8 4.5t9 5.5l24 24q5 7 27 31t31 37q53 69 104 127l57 57q41 41 56 60q111 141 204 246q61 64 101 92q36 23 82 57q71 50 123 80q59 35 107.5 54.5t77.5 23.5t51 -1t30.5 -12t13.5 -16 q10 -15 17 -55q9 -63 -23 -135q-27 -65 -109 -134q-27 -24 -104 -84q-23 -18 -78 -53q-7 -4 -35.5 -20.5t-42.5 -26.5q-33 -22 -123 -98q-13 -12 -28 -28t-24.5 -28t-25.5 -32.5t-24 -30.5t-14.5 -25.5t-9 -31.5t4.5 -27t25 -10q111 4 234 84q71 45 133 100q19 16 47.5 42 t40.5 36q30 25 102.5 99t102.5 110q9 11 33.5 39.5t40.5 50t26 43.5q3 10 -14 39q-3 4 -14 17t-15.5 19.5t-11.5 18t-10 22t-3 21.5q1 11 19 51q22 50 65.5 61t78 -6t38.5 -40q4 -26 4 -33v-35q0 -20 6 -22q13 -1 41 5t35 7q15 1 45.5 2t44.5 2q34 2 67.5 -9t47.5 -38v-4 l4 -6q21 -54 -2 -92q-60 -98 -96 -142q-51 -61 -66 -80q-19 -26 -49 -65t-39 -51q-40 -54 -80 -127q-4 -7 -13.5 -25t-14.5 -28t-11 -25t-9 -29.5t-3 -28.5q0 -32 25 -45q30 -13 69 7q49 23 70 38q34 22 88 70q15 15 25.5 24t26 21t28.5 23q52 49 108 110q66 70 93 113 q81 124 86 131q8 10 19 33t15 30q9 19 68.5 104t73.5 99q72 85 96 103q12 9 25 12q8 2 24 10q27 13 62 10q28 3 46.5 -16.5t0.5 -48.5q-15 -25 -62.5 -108.5t-75.5 -125.5q-53 -85 -100 -153q-16 -25 -40.5 -74.5t-37.5 -71.5q-31 -44 -41 -84q-9 -28 -10 -32q-5 -17 0 -27 q9 -10 23 -11t29 6t27 14.5t21 15.5q85 70 127 118q58 67 140 174q14 20 33.5 42.5t41.5 45t45 45t47 44.5t45 40.5t42 36t34.5 28.5t25.5 21.5t13 10.5q120 91 224 141q2 1 13 7.5t15.5 8.5t15.5 8t17.5 8.5t17 7t18 6t16.5 3.5t17 2t15 -2q73 -14 84 -90q3 -46 -6 -74 q-2 -11 -17 -43q-40 -111 -217 -247q-60 -47 -137 -91q-71 -39 -141 -81q-47 -28 -78 -64q-10 -10 -18 -20q-56 -65 -50 -160q2 -34 88 0q80 29 115 59l8 8l19 17q36 27 57 47q92 80 135 125q6 7 52.5 59.5t74.5 75.5q29 24 63.5 22.5t47 -25t-5.5 -63.5q-15 -26 -54 -67 q-16 -19 -61 -59q-9 -8 -30 -26t-31 -28q-120 -101 -236 -184q-41 -28 -70 -45t-71 -34t-81.5 -16t-76.5 21q-89 47 -113 123q-10 30 -20 102q0 8 -1 20.5t-1 16.5l-2 7q-59 -67 -62 -70q-47 -56 -63 -72q-64 -61 -80 -76q-51 -51 -92 -65q-53 -14 -92 -6q-23 5 -49 33 q-31 27 -35 86q-2 17 -3.5 38.5t-2.5 26.5q0 17 -9 21q-1 1 -8.5 -8t-23 -26t-29.5 -30l-49 -49q-27 -25 -31 -27q-73 -59 -194 -139q-30 -20 -102.5 -29t-102.5 2q-38 13 -60.5 45.5t-28 59.5t-5.5 55q0 38 10 72q11 43 24 76q30 70 78 141q12 20 123 219q2 4 12.5 24.5 t14.5 32.5q5 19 2 22.5t-21 0.5q-6 -1 -25 -4t-28 -6q-15 -8 -39 -47q-27 -42 -53 -74q-10 -10 -80 -88q-14 -17 -31.5 -37t-29.5 -33.5t-15 -17.5q-13 -19 -90 -102t-106 -105q-28 -22 -82 -74q-20 -16 -37 -24q-6 -4 -39 -23q-61 -38 -90 -53q-231 -115 -312 -49 q-56 47 -81 153q-12 58 -13 64t0 14q-1 6 -2 6q-12 -3 -59 -48.5t-70 -72.5q-2 -2 -9 -10l-17.5 -20t-20.5 -23q-37 -44 -53 -57q-34 -23 -70.5 -12.5t-52.5 49.5q-18 39 -18 90v30v7l-21 -21q-24 -20 -27 -26q-7 -6 -55 -58q-44 -48 -70 -63q-43 -24 -45 -25q-27 -10 -61 0 q-8 3 -16.5 10t-13 12t-13.5 17t-10 14q-20 21 -29.5 78.5zM231 127q-6 -27 2 -55q11 -21 33 -9q5 4 26 18.5t30 22.5q14 16 34 33l31 31q48 56 84 119q53 86 117 184q30 44 51 78.5t27 47.5l6 13q14 34 35 92q1 6 4 15t4 14q11 37 -6 70q-9 11 -27 5.5t-27 -15.5 q-12 -15 -39.5 -46t-37.5 -45q-34 -37 -66 -82q-53 -69 -88 -124q-3 -6 -10.5 -17t-13 -21t-9.5 -18q-2 -4 -20 -33t-21 -36q-48 -78 -69 -121q-38 -67 -50 -121zM1265.5 619.5q-1.5 -8.5 0.5 -11.5q5 -9 37.5 6t56.5 31q19 12 51.5 38t40.5 32q14 10 40 32.5t34 28.5 q2 2 11.5 11t11.5 11.5t9.5 10.5t9.5 12.5t5.5 12.5t4 15.5t-0.5 16.5q0 6 -20 -2q-6 -3 -9 -4q-8 -4 -17.5 -8.5t-17 -9t-8.5 -4.5q-68 -43 -117.5 -82t-72.5 -64t-35.5 -44.5t-14 -28zM3017.5 1263q1.5 25 9.5 44q20 49 65 93t93 66q39 -3 45 -45q0 -27 -11 -49 q-8 -18 -20 -41q-23 -32 -53 -65q-2 -2 -10 -11.5t-13 -15t-12.5 -12.5t-14.5 -10.5t-14 -2.5q-45 0 -53 7q-13 17 -11.5 42zM3262 705q-2 -11 7.5 -16t23.5 -3.5t25 8.5q62 37 102 70q18 14 52.5 44t41.5 36q66 48 72 98q0 6 -2 7t-14 -1q-17 -4 -58 -26q-19 -12 -42 -27 t-38 -25.5t-18 -11.5q-11 -9 -42.5 -32.5t-47.5 -37.5q-50 -42 -62 -83zM3744 498q0 20 15 34.5t36 14.5q20 0 34.5 -14.5t14.5 -34.5q0 -21 -14 -35t-35 -14q-22 0 -36.5 13.5t-14.5 35.5zM3762 498q0 -14 9.5 -23.5t23.5 -9.5q12 0 21.5 9.5t9.5 23.5q0 12 -9.5 21 t-21.5 9q-13 0 -23 -9t-10 -21zM3768 479q0 2 6 8l3 19l2 2q-9 4 -9 8q0 7 7 10h4h4h8q24 0 24 -18q0 -8 -4 -10v-2v-9q2 0 4.5 -2.5t2.5 -5.5q0 -6 -7 -10h-6q-6 0 -8 4q-4 4 -4 8v4v2q0 2 -2 5v-3h-2l-4 3l8 4v-7v-2v-2l-2 2v7l-8 -7h6h2q3 0 6 -6v-8l-10 -4h-6 q-2 0 -8.5 3.5t-6.5 6.5zM3789 508l6 -6v2v4h-6zM3795 508q4 0 4 2q-2 -2 -4 -2z" />
<glyph unicode="&#xa2;" horiz-adv-x="1136" d="M264 794v62q0 72 0.5 109.5t6 104t16 104t32 87t52 76t78 48t108.5 25.5v133h65v-134q76 -6 129 -39.5t82 -92.5t42.5 -122.5t18.5 -148.5q0 -2 0.5 -7t0.5 -7h-150v14q0 34 -1.5 61t-6 65.5t-15 67t-27 55t-43.5 40.5t-63 14q-41 0 -70 -10.5t-48.5 -37.5t-30.5 -58.5 t-17 -89.5t-7.5 -112.5t-1.5 -144.5v-62q0 -86 2.5 -145t9 -114t18.5 -88.5t31.5 -59.5t47 -37t65.5 -11q21 0 39 5t32 16.5t25 22t19.5 31.5t14.5 34t10 40.5t6.5 40.5t4.5 43.5t3 40t2 39.5q0 3 0.5 9t0.5 8h151q0 -2 -0.5 -6t-0.5 -6q-3 -72 -11 -127t-26.5 -109.5 t-47.5 -90.5t-76 -60.5t-111 -29.5v-153h-65v153q-61 4 -108.5 24t-78.5 45t-52 73t-32 84.5t-16 104t-6 107t-1 116.5z" />
<glyph unicode="&#xa3;" horiz-adv-x="1212" d="M243 0v65l128 50v653h-128v109h128v327q0 43 1.5 80t8.5 95t19.5 104t37 97.5t58 85.5t85 56.5t115.5 22.5q57 0 102.5 -17.5t73.5 -42.5t48.5 -65t30 -72t15 -77t6 -66.5t0.5 -54.5v-7h-120q0 40 -0.5 60t-3.5 55.5t-9 54t-17.5 43t-28.5 36t-43 19.5t-60 6 q-25 -1 -45 -7.5t-36 -19.5t-28.5 -26.5t-21 -38t-15 -43.5t-10.5 -53t-6.5 -57t-3.5 -65.5t-1 -68v-74.5v-281h289v-115h-289v-653h448v-115h-728z" />
<glyph unicode="&#xa5;" horiz-adv-x="1285" d="M198 1721h169l282 -1032q45 164 95 348t91 335.5t96 348.5h159l-340 -1109h181v-89h-205v-206h205v-91h-205v-226h-152v226h-212v91h212v206h-212v89h187z" />
<glyph unicode="&#xa8;" horiz-adv-x="1171" d="M301 1386v179h184v-179h-184zM685 1386v179h184v-179h-184z" />
<glyph unicode="&#xa9;" horiz-adv-x="1754" d="M254 657q0 100 25 195t77 179.5t125.5 147.5t177 100t225.5 37t225.5 -37t177 -100t125.5 -147.5t77 -179.5t25 -195t-25 -195t-77 -179.5t-125.5 -147.5t-177 -100t-225.5 -37t-225.5 37t-177 100t-125.5 147.5t-77 179.5t-25 195zM344 657q0 -90 21.5 -175t66 -160.5 t107 -132t151.5 -89.5t194 -33t194 33t151.5 89.5t107 132t66 160.5t21.5 175t-21.5 175t-66 160.5t-107 132t-151.5 89.5t-194 33t-194 -33t-151.5 -89.5t-107 -132t-66 -160.5t-21.5 -175zM650 667q0 45 0.5 71.5t2.5 69t6.5 69t12.5 62t20 58t30.5 46.5t41.5 37.5 t55 22.5t71 9q46 0 82.5 -16.5t58.5 -38.5t37.5 -56.5t22.5 -58t10.5 -57t3.5 -39v-17.5h-87q-1 47 -6.5 80.5t-18.5 65.5t-39 48.5t-65 16.5q-34 0 -57.5 -8t-40 -29t-26 -46.5t-14.5 -72.5t-6.5 -94t-1.5 -123t1.5 -123t6.5 -94t14.5 -72.5t26 -46.5t40 -29t57.5 -8 q39 0 65 16.5t39 48.5t18.5 65.5t6.5 80.5h87q0 -6 -0.5 -16.5t-4.5 -40t-11.5 -56t-23.5 -59t-38 -56t-57.5 -39.5t-79.5 -16q-39 0 -71 9t-55 22.5t-41.5 37.5t-30.5 46.5t-20 58t-12.5 62t-6.5 69t-2.5 69t-0.5 71.5z" />
<glyph unicode="&#xab;" horiz-adv-x="1250" d="M266 576v128l388 452v-200l-276 -315l276 -317v-200zM578 576v128l388 452v-200l-276 -315l276 -317v-200z" />
<glyph unicode="&#xad;" d="M290 833v115h313v-115h-313z" />
<glyph unicode="&#xae;" horiz-adv-x="1754" d="M254 657q0 100 25 195t77 179.5t125.5 147.5t177 100t225.5 37t225.5 -37t177 -100t125.5 -147.5t77 -179.5t25 -195t-25 -195t-77 -179.5t-125.5 -147.5t-177 -100t-225.5 -37t-225.5 37t-177 100t-125.5 147.5t-77 179.5t-25 195zM344 657q0 -90 21.5 -175t66 -160.5 t107 -132t151.5 -89.5t194 -33t194 33t151.5 89.5t107 132t66 160.5t21.5 175t-21.5 175t-66 160.5t-107 132t-151.5 89.5t-194 33t-194 -33t-151.5 -89.5t-107 -132t-66 -160.5t-21.5 -175zM692 241v842h191q236 0 236 -240q0 -70 -47 -122.5t-101 -63.5q14 -29 154 -413 h-86l-133 402h-142v-405h-72zM764 695h67h47t41.5 2.5t40.5 7.5t30.5 16t27.5 26.5t14.5 39.5t6.5 56q0 97 -41 143t-128 46h-106v-337z" />
<glyph unicode="&#xb4;" horiz-adv-x="820" d="M284 1324l123 398h162l-229 -398h-56z" />
<glyph unicode="&#xb8;" horiz-adv-x="825" d="M299 -335q147 0 147 67q0 31 -29 67.5t-74 66.5v134h64v-115q142 -83 142 -162q0 -52 -66.5 -84.5t-183.5 -32.5v59z" />
<glyph unicode="&#xbb;" horiz-adv-x="1248" d="M299 124v200l276 317l-276 315v200l388 -452v-128zM611 124v200l276 317l-276 315v200l388 -452v-128z" />
<glyph unicode="&#xbf;" horiz-adv-x="1187" d="M200 401q0 180 98.5 320t296.5 263v284h134v-341q-101 -58 -176 -123t-115 -119t-64 -111t-30.5 -95t-6.5 -76q0 -81 21 -142t57.5 -96t80.5 -52t94 -17q118 0 194 79.5t77 223.5l1 142h134v-146q0 -99 -35 -181t-92.5 -133.5t-129.5 -79t-149 -27.5q-75 0 -144 26.5 t-124.5 77.5t-88.5 134.5t-33 188.5zM570 1540v179h184v-179h-184z" />
<glyph unicode="&#xc1;" horiz-adv-x="1357" d="M237 0q81 402 170.5 863.5t169.5 857.5h198l340 -1721h-154l-86 448h-397l-88 -448h-153zM496 549h360l-181 1014zM620 1848l123 398h162l-229 -398h-56z" />
<glyph unicode="&#xc9;" horiz-adv-x="1184" d="M334 0v1721h600v-122h-448v-652h320v-115h-320v-710h448v-122h-600zM573 1848l123 398h162l-229 -398h-56z" />
<glyph unicode="&#xcd;" horiz-adv-x="820" d="M333 0v1721h152v-1721h-152zM354 1848l123 398h162l-229 -398h-56z" />
<glyph unicode="&#xd1;" horiz-adv-x="1459" d="M334 0v1721h117l545 -1363v1363h129v-1721h-114l-546 1334v-1334h-131zM462 1899q1 19 3.5 37t14.5 47.5t30.5 50t54.5 36.5t84 16q28 0 94.5 -38t90.5 -38q29 0 45 14.5t21 52.5h116l-1 -13q-1 -14 -4.5 -29.5t-10 -36.5t-20 -39.5t-32 -35t-48.5 -26.5t-68 -10 t-103.5 39t-89.5 39q-28 0 -42.5 -14t-19.5 -52h-115z" />
<glyph unicode="&#xd3;" horiz-adv-x="1492" d="M307 499v721q0 91 13.5 167t45.5 143.5t81 114t125 73.5t174 27t174 -27t125 -73.5t81 -114t45.5 -143.5t13.5 -167v-721q0 -526 -439 -526t-439 526zM459 465q0 -370 287 -370t287 370v789q0 369 -287 369t-287 -369v-789zM691 1848l123 398h162l-229 -398h-56z" />
<glyph unicode="&#xda;" horiz-adv-x="1521" d="M323 423v1298h152v-1333q0 -148 67 -220.5t226 -72.5q150 0 214 73t64 220v1333h151v-1298q0 -450 -429 -450q-103 0 -181.5 24t-128 64.5t-80.5 99t-43 122t-12 140.5zM711 1848l123 398h162l-229 -398h-56z" />
<glyph unicode="&#xdc;" horiz-adv-x="1521" d="M323 423v1298h152v-1333q0 -148 67 -220.5t226 -72.5q150 0 214 73t64 220v1333h151v-1298q0 -450 -429 -450q-103 0 -181.5 24t-128 64.5t-80.5 99t-43 122t-12 140.5zM481 1908v179h184v-179h-184zM865 1908v179h184v-179h-184z" />
<glyph unicode="&#xe1;" horiz-adv-x="1214" d="M262 239q0 32 1 51.5t5.5 50.5t13 52t25 51.5t40.5 54t60 54t83 58t110.5 59t140.5 63.5v10q0 101 -8.5 174t-21.5 112t-34 61.5t-39 28t-44 5.5q-153 0 -153 -228v-7h-156q12 157 92.5 246.5t211.5 89.5q73 0 129 -23.5t88.5 -60t52.5 -87.5t27 -99t7 -103v-576 q0 -63 4.5 -132t8.5 -106l5 -38h-140l-19 145q-48 -84 -118.5 -128t-134.5 -44q-93 0 -165 73.5t-72 192.5zM413 267q0 -86 36 -127.5t85 -41.5q57 0 115.5 41t91.5 105v422q-73 -51 -115 -82t-88.5 -72.5t-70 -75.5t-39 -77.5t-15.5 -91.5zM536 1324l123 398h162l-229 -398 h-56z" />
<glyph unicode="&#xe9;" horiz-adv-x="1215" d="M297 552l1 167q1 125 18 216.5t44.5 146.5t70.5 87.5t89 44t108 11.5q161 0 231.5 -114t70.5 -360q0 -75 -2 -123h-480v-183q0 -118 11.5 -193.5t36.5 -113.5t55 -51t76 -13q31 0 57.5 13t50.5 43t37.5 88.5t13.5 140.5v8h140v-6q0 -82 -15.5 -149t-48.5 -122t-92.5 -86 t-140.5 -31q-95 0 -156 26.5t-102.5 93.5t-58 177.5t-15.5 281.5zM449 702h332v2v54q2 43 0.5 87t-4 84.5t-12.5 76t-25 62t-42 41.5t-63 15q-46 0 -78 -10t-52.5 -39.5t-32 -55.5t-16.5 -85.5t-6 -100.5t-1 -128v-3zM574 1324l123 398h162l-229 -398h-56z" />
<glyph unicode="&#xed;" horiz-adv-x="781" d="M320 0v1198h150v-1198h-150zM344 1325l123 398h162l-229 -398h-56z" />
<glyph unicode="&#xf1;" horiz-adv-x="1269" d="M308 0v1198h150v-113q48 70 115 105t139 35q89 0 156.5 -74.5t67.5 -209.5v-941h-152v944q0 89 -35 129.5t-92 40.5q-47 0 -100.5 -32.5t-98.5 -88.5v-993h-150zM397 1375q1 19 3.5 37t14.5 47.5t30.5 50t54.5 36.5t84 16q28 0 94.5 -38t90.5 -38q29 0 45 14.5t21 52.5 h116l-1 -13q-1 -14 -4.5 -29.5t-10 -36.5t-20 -39.5t-32 -35t-48.5 -26.5t-68 -10t-103.5 39t-89.5 39q-28 0 -42.5 -14t-19.5 -52h-115z" />
<glyph unicode="&#xf3;" horiz-adv-x="1226" d="M296 568v62q0 80 1 122.5t6.5 116t17 114.5t34.5 94t56.5 80.5t84.5 47.5t117 20t117 -20t84.5 -47.5t56.5 -80.5t34.5 -94t17 -114.5t6.5 -116t1 -122.5v-62q0 -67 -0.5 -101t-3 -94.5t-8 -93.5t-16.5 -82t-26.5 -76t-39.5 -59.5t-55 -49t-73.5 -28t-94.5 -11.5 t-94.5 11.5t-73.5 28t-55 49t-39.5 59.5t-26.5 76t-16.5 82t-8 93.5t-3 94.5t-0.5 101zM446 568q0 -282 33 -388t134 -106t134 106t33 388v62q0 95 -2 160t-8.5 124.5t-18 95.5t-30 63.5t-45 39t-63.5 11.5t-63.5 -11.5t-45.5 -39t-30 -63t-17.5 -96t-8.5 -124.5t-2 -160 v-62zM558 1325l123 398h162l-229 -398h-56z" />
<glyph unicode="&#xfa;" horiz-adv-x="1265" d="M313 257v941h152v-944q0 -89 35 -129.5t92 -40.5q47 0 100.5 32.5t98.5 88.5v993h150v-1198h-150v113q-48 -70 -115 -105t-139 -35q-89 0 -156.5 74.5t-67.5 209.5zM573 1325l123 398h162l-229 -398h-56z" />
<glyph unicode="&#xfc;" horiz-adv-x="1265" d="M313 257v941h152v-944q0 -89 35 -129.5t92 -40.5q47 0 100.5 32.5t98.5 88.5v993h150v-1198h-150v113q-48 -70 -115 -105t-139 -35q-89 0 -156.5 74.5t-67.5 209.5zM343 1385v179h184v-179h-184zM727 1385v179h184v-179h-184z" />
<glyph unicode="&#x2c6;" horiz-adv-x="1089" d="M282 1408l156 307h213l153 -307h-110l-150 299l-149 -299h-113z" />
<glyph unicode="&#x2da;" horiz-adv-x="1013" d="M286 1504q0 88 56 153t163 65t163 -65t56 -153t-56 -153t-163 -65t-163 65t-56 153zM364 1504q0 -59 34 -103t107 -44t107 44t34 103t-34 103t-107 44t-107 -44t-34 -103z" />
<glyph unicode="&#x2dc;" horiz-adv-x="1130" d="M290 1376q1 19 3.5 37t14.5 47.5t30.5 50t54.5 36.5t84 16q28 0 94.5 -38t90.5 -38q29 0 45 14.5t21 52.5h116l-1 -14q-1 -13 -4.5 -28.5t-10 -36.5t-20 -39.5t-32 -35t-48.5 -26.5t-68 -10t-103.5 39t-89.5 39q-28 0 -42.5 -14t-19.5 -52h-115z" />
<glyph unicode="&#x2000;" horiz-adv-x="1123" />
<glyph unicode="&#x2001;" horiz-adv-x="2246" />
<glyph unicode="&#x2002;" horiz-adv-x="1123" />
<glyph unicode="&#x2003;" horiz-adv-x="2246" />
<glyph unicode="&#x2004;" horiz-adv-x="748" />
<glyph unicode="&#x2005;" horiz-adv-x="561" />
<glyph unicode="&#x2006;" horiz-adv-x="374" />
<glyph unicode="&#x2007;" horiz-adv-x="374" />
<glyph unicode="&#x2008;" horiz-adv-x="280" />
<glyph unicode="&#x2009;" horiz-adv-x="449" />
<glyph unicode="&#x200a;" horiz-adv-x="124" />
<glyph unicode="&#x2010;" d="M290 833v115h313v-115h-313z" />
<glyph unicode="&#x2011;" d="M290 833v115h313v-115h-313z" />
<glyph unicode="&#x2012;" d="M290 833v115h313v-115h-313z" />
<glyph unicode="&#x2013;" horiz-adv-x="1169" d="M305 833v115h574v-115h-574z" />
<glyph unicode="&#x2014;" horiz-adv-x="1570" d="M305 833v115h974v-115h-974z" />
<glyph unicode="&#x2018;" horiz-adv-x="779" d="M299 1311q0 243 25 333.5t111 101.5l27 -55q-35 -11 -58.5 -38.5t-32.5 -62t-12 -56.5t-3 -44h128v-179h-185z" />
<glyph unicode="&#x2019;" horiz-adv-x="769" d="M288 1542v179h185q0 -243 -25 -333.5t-111 -101.5l-27 55q35 11 58.5 38.5t32.5 62t12 56.5t3 44h-128z" />
<glyph unicode="&#x201a;" horiz-adv-x="779" d="M311 -14h168q-12 -74 -24.5 -151t-25.5 -156h-68z" />
<glyph unicode="&#x201c;" horiz-adv-x="1074" d="M299 1311q0 243 25 333.5t111 101.5l27 -55q-35 -11 -58.5 -38.5t-32.5 -62t-12 -56.5t-3 -44h128v-179h-185zM593 1311q0 243 25 333.5t111 101.5l27 -55q-35 -11 -58.5 -38.5t-32.5 -62t-12 -56.5t-3 -44h128v-179h-185z" />
<glyph unicode="&#x201d;" horiz-adv-x="1062" d="M288 1542v179h185q0 -243 -25 -333.5t-111 -101.5l-27 55q35 11 58.5 38.5t32.5 62t12 56.5t3 44h-128zM582 1542v179h185q0 -243 -25 -333.5t-111 -101.5l-27 55q35 11 58.5 38.5t32.5 62t12 56.5t3 44h-128z" />
<glyph unicode="&#x201e;" horiz-adv-x="1101" d="M311 -13h168q-12 -74 -24.5 -151t-25.5 -156h-67zM634 -13h168q-12 -74 -24.5 -151t-25.5 -156h-67z" />
<glyph unicode="&#x202f;" horiz-adv-x="449" />
<glyph unicode="&#x2039;" horiz-adv-x="937" d="M266 576v128l388 452v-200l-276 -315l276 -317v-200z" />
<glyph unicode="&#x203a;" horiz-adv-x="937" d="M266 124v200l276 317l-276 315v200l388 -452v-128z" />
<glyph unicode="&#x205f;" horiz-adv-x="561" />
<glyph unicode="&#x20ac;" horiz-adv-x="1472" d="M229 695v89h122v132h-122v89h122v215q0 525 437 525q404 0 404 -525v-70h-145v104q0 83 -12.5 147t-41.5 115.5t-80.5 79t-124.5 27.5q-81 0 -138.5 -27.5t-88.5 -79t-44.5 -115.5t-13.5 -147v-249h268v-89h-268v-132h268v-89h-268v-230q0 -83 13.5 -147t44.5 -116 t88.5 -79.5t138.5 -27.5q73 0 124.5 27.5t80.5 79.5t41.5 116t12.5 147v118h145v-84q0 -91 -11 -166t-39.5 -143.5t-73.5 -115t-116 -74t-164 -27.5q-100 0 -176.5 27.5t-125.5 74t-79.5 115t-43 143.5t-12.5 166v196h-122z" />
<glyph unicode="&#x2122;" horiz-adv-x="1775" d="M245 1364v77h426v-77h-164v-678h-99v678h-163zM834 686v755h163l148 -539l163 539h150v-755h-89v724l-201 -724h-47l-200 714v-714h-87z" />
<glyph unicode="&#xe000;" horiz-adv-x="1200" d="M0 0v1200h1200v-1200h-1200z" />
</font>
</defs>
</svg>
